<svg width="20" height="20" viewBox="0 0 20 20" fill="none" xmlns="http://www.w3.org/2000/svg">
<path d="M0.165039 16.9205V15.198C0.165039 14.7127 0.290539 14.2954 0.541539 13.9461C0.793235 13.5975 1.13139 13.3186 1.556 13.1095C2.46308 12.6772 3.36389 12.3328 4.25842 12.0762C5.15226 11.8196 6.22807 11.6913 7.48586 11.6913C8.74365 11.6913 9.81981 11.8196 10.7143 12.0762C11.6089 12.3328 12.5097 12.6772 13.4168 13.1095C13.8407 13.3186 14.1785 13.5975 14.4302 13.9461C14.6812 14.2954 14.8067 14.7127 14.8067 15.198V16.9205H0.165039ZM16.8983 16.9205V15.1499C16.8983 14.5433 16.7756 13.9712 16.5302 13.4337C16.2855 12.8954 15.9376 12.4339 15.4865 12.049C16.0003 12.1536 16.4954 12.2986 16.9716 12.4841C17.4471 12.6702 17.9177 12.879 18.3834 13.1105C18.8366 13.3385 19.1919 13.6303 19.4491 13.9859C19.7064 14.3415 19.835 14.7295 19.835 15.1499V16.9205H16.8983ZM5.26556 8.44087C4.6541 7.82941 4.34837 7.08931 4.34837 6.22057C4.34837 5.35183 4.6541 4.61173 5.26556 4.00027C5.87702 3.38881 6.61712 3.08308 7.48586 3.08308C8.3546 3.08308 9.0947 3.38881 9.70616 4.00027C10.3176 4.61173 10.6234 5.35183 10.6234 6.22057C10.6234 7.08931 10.3176 7.82941 9.70616 8.44087C9.0947 9.05234 8.3546 9.35807 7.48586 9.35807C6.61712 9.35807 5.87702 9.05234 5.26556 8.44087ZM14.1666 8.44087C13.5524 9.05234 12.814 9.35807 11.9516 9.35807C11.9069 9.35807 11.8505 9.35284 11.7821 9.34238C11.7138 9.33192 11.6573 9.32111 11.6127 9.30996C11.9676 8.87559 12.2399 8.39381 12.4295 7.86462C12.6198 7.33613 12.715 6.78706 12.715 6.21743C12.715 5.6478 12.6157 5.10397 12.417 4.58594C12.2176 4.06651 11.9495 3.58159 11.6127 3.13119C11.6692 3.11097 11.7257 3.09772 11.7821 3.09144C11.8386 3.08517 11.8951 3.08203 11.9516 3.08203C12.814 3.08203 13.5524 3.38776 14.1666 3.99923C14.7809 4.61069 15.0884 5.35079 15.0891 6.21953C15.0898 7.08826 14.7823 7.82871 14.1666 8.44087ZM1.21087 15.8746H13.7609V15.198C13.7609 14.9526 13.6995 14.7382 13.5768 14.5548C13.4541 14.3714 13.2338 14.1957 12.9158 14.0277C12.1356 13.6108 11.3129 13.2914 10.4477 13.0697C9.58241 12.848 8.59514 12.7371 7.48586 12.7371C6.37658 12.7371 5.38897 12.848 4.52302 13.0697C3.65847 13.2914 2.83574 13.6108 2.05486 14.0277C1.73762 14.195 1.51765 14.3707 1.39494 14.5548C1.27223 14.7382 1.21087 14.9526 1.21087 15.198V15.8746ZM8.96362 7.69729C9.37289 7.28802 9.57752 6.79578 9.57752 6.22057C9.57752 5.64536 9.37289 5.15278 8.96362 4.74281C8.55435 4.33285 8.06177 4.12821 7.48586 4.12891C6.90996 4.12961 6.41772 4.33424 6.00915 4.74281C5.60058 5.15138 5.39559 5.64397 5.3942 6.22057C5.3928 6.79717 5.59779 7.28941 6.00915 7.69729C6.42051 8.10516 6.91274 8.31014 7.48586 8.31224C8.05898 8.31433 8.55156 8.10934 8.96362 7.69729Z" fill="#959595"/>
</svg>
