<svg width="20" height="20" viewBox="0 0 20 20" fill="none" xmlns="http://www.w3.org/2000/svg">
<rect width="20" height="20" rx="10" fill="#3CB845"/>
<g clip-path="url(#clip0_759_25727)">
<path d="M14.2857 10.7133H10.7143V14.2847C10.7143 14.4742 10.639 14.6559 10.5051 14.7898C10.3711 14.9238 10.1894 14.999 10 14.999C9.81056 14.999 9.62888 14.9238 9.49492 14.7898C9.36097 14.6559 9.28571 14.4742 9.28571 14.2847V10.7133H5.71429C5.52485 10.7133 5.34316 10.6381 5.20921 10.5041C5.07526 10.3701 5 10.1885 5 9.99902C5 9.80958 5.07526 9.6279 5.20921 9.49395C5.34316 9.35999 5.52485 9.28474 5.71429 9.28474H9.28571V5.71331C9.28571 5.52387 9.36097 5.34219 9.49492 5.20823C9.62888 5.07428 9.81056 4.99902 10 4.99902C10.1894 4.99902 10.3711 5.07428 10.5051 5.20823C10.639 5.34219 10.7143 5.52387 10.7143 5.71331V9.28474H14.2857C14.4752 9.28474 14.6568 9.35999 14.7908 9.49395C14.9247 9.6279 15 9.80958 15 9.99902C15 10.1885 14.9247 10.3701 14.7908 10.5041C14.6568 10.6381 14.4752 10.7133 14.2857 10.7133Z" fill="black"/>
</g>
<defs>
<clipPath id="clip0_759_25727">
<rect width="10" height="10" fill="white" transform="translate(5 5)"/>
</clipPath>
</defs>
</svg>
