<svg width="32" height="32" viewBox="0 0 32 32" fill="none" xmlns="http://www.w3.org/2000/svg">
<path d="M27.2006 12.9846C28.6224 14.4062 29.3332 15.117 29.3332 16.0003C29.3332 16.8835 28.6224 17.5945 27.2006 19.0161C26.2449 19.9718 25.9514 20.5889 25.9514 21.9309C25.9514 22.9929 26.1574 24.5038 25.3205 25.3337C24.4902 26.157 22.9856 25.9519 21.9304 25.9519C20.6352 25.9519 20.0114 26.2053 19.087 27.1297C18.3 27.9169 17.2448 29.3337 15.9998 29.3337C14.7549 29.3337 13.6997 27.9169 12.9126 27.1297C11.9882 26.2053 11.3645 25.9519 10.0693 25.9519C9.01408 25.9519 7.50941 26.157 6.67916 25.3337C5.84225 24.5038 6.04821 22.9929 6.04821 21.9309C6.04821 20.5889 5.75472 19.9718 4.79901 19.0161C3.37736 17.5945 2.66653 16.8835 2.6665 16.0003C2.66652 15.117 3.37733 14.4062 4.79897 12.9846C5.6521 12.1314 6.04821 11.286 6.04821 10.0697C6.04821 9.01453 5.84316 7.50985 6.6665 6.67958C7.49641 5.8427 9.0073 6.04867 10.0693 6.04867C11.2855 6.04867 12.1309 5.65259 12.984 4.79949C14.4057 3.37782 15.1165 2.66699 15.9998 2.66699C16.8832 2.66699 17.594 3.37782 19.0156 4.79949M25.3205 25.3337H25.3332" stroke="#7B83EB" stroke-width="2" stroke-linecap="round" stroke-linejoin="round"/>
<path d="M10.6665 13.7439C10.6665 13.7439 13.6665 13.3337 15.9998 18.667C15.9998 18.667 22.7449 5.33366 29.3332 2.66699" stroke="#7B83EB" stroke-width="2" stroke-linecap="round" stroke-linejoin="round"/>
</svg>
