<svg width="32" height="26" viewBox="0 0 32 26" fill="none" xmlns="http://www.w3.org/2000/svg">
<path d="M17.6026 6.41422C22.671 6.41422 25.5476 9.76919 25.9652 13.8217H26.0932C26.868 13.8207 27.6354 13.9723 28.3516 14.2678C29.0677 14.5634 29.7187 14.9972 30.2672 15.5443C30.8157 16.0915 31.2511 16.7414 31.5484 17.4569C31.8457 18.1723 31.9992 18.9393 32 19.7141C31.9989 20.4888 31.8453 21.2556 31.5479 21.9709C31.2505 22.6861 30.8151 23.3358 30.2666 23.8828C29.7181 24.4299 29.0673 24.8635 28.3512 25.159C27.6351 25.4544 26.8678 25.606 26.0932 25.6049H9.11036C8.33572 25.606 7.56846 25.4544 6.85238 25.159C6.1363 24.8635 5.48544 24.4299 4.93694 23.8828C4.38844 23.3358 3.95306 22.6861 3.65565 21.9709C3.35823 21.2556 3.20462 20.4888 3.20357 19.7141C3.20441 18.9393 3.35787 18.1723 3.65519 17.4569C3.9525 16.7414 4.38786 16.0915 4.93637 15.5443C5.48489 14.9972 6.13583 14.5634 6.85201 14.2678C7.56819 13.9723 8.33559 13.8207 9.11036 13.8217H9.23835C9.65913 9.74199 12.5341 6.41422 17.6026 6.41422ZM7.34248 0.00185747C8.61749 0.0707421 9.85811 0.440244 10.963 1.08018C12.5851 2.0141 13.8334 3.48123 14.4956 5.2319C11.3214 6.13104 9.04957 8.43328 8.10563 11.5451L7.99524 11.9386L7.90245 12.3194L7.57287 12.3802C5.77065 12.762 4.17301 13.7961 3.08677 15.284C1.93674 14.6748 0.950539 13.7972 0.21177 12.7258C0.1074 12.5743 0.0392659 12.4008 0.0126362 12.2188C-0.0139936 12.0367 0.00159402 11.851 0.0581935 11.6759C0.114793 11.5009 0.210888 11.3412 0.339052 11.2092C0.467216 11.0772 0.624016 10.9764 0.79733 10.9147C3.42595 9.97398 4.84025 8.91485 5.6514 7.36935C6.53454 5.68147 6.69773 3.89119 6.11057 1.48656C6.06575 1.30438 6.06428 1.11424 6.10626 0.931389C6.14825 0.748542 6.23252 0.578086 6.35231 0.433708C6.47211 0.289331 6.62409 0.175055 6.79605 0.100056C6.96802 0.0250561 7.15517 -0.00857676 7.34248 0.00185747Z" fill="#A1D0FF"/>
</svg>
