<svg width="20" height="20" viewBox="0 0 20 20" fill="none" xmlns="http://www.w3.org/2000/svg">
<g clip-path="url(#clip0_1855_14655)">
<path d="M18.3334 10.0003C18.3348 11.0944 18.1203 12.178 17.7021 13.189C17.2839 14.2001 16.6703 15.1186 15.8965 15.8921C15.1223 16.6665 14.203 17.2807 13.1913 17.6996C12.1796 18.1185 11.0952 18.3339 10.0001 18.3335C8.82159 18.3361 7.65604 18.0873 6.58125 17.6038L3.0975 18.1191C2.92453 18.1474 2.74728 18.1329 2.58114 18.0771C2.415 18.0213 2.26501 17.9258 2.14418 17.7988C2.02335 17.6719 1.93534 17.5173 1.8878 17.3486C1.84026 17.1799 1.83463 17.0022 1.87138 16.8308L2.35516 13.2966C1.89498 12.2589 1.66038 11.1354 1.66688 10.0003C1.66548 8.90615 1.88002 7.82252 2.29819 6.81149C2.71636 5.80045 3.32996 4.88187 4.1038 4.10841C4.87801 3.33402 5.79726 2.71981 6.809 2.3009C7.82073 1.88198 8.90511 1.66658 10.0001 1.66699C12.2115 1.66714 14.3323 2.54528 15.8965 4.10841C16.6699 4.88217 17.2833 5.8008 17.7014 6.81177C18.1196 7.82274 18.3343 8.90622 18.3334 10.0003Z" stroke="white" stroke-width="1.875" stroke-linecap="round" stroke-linejoin="round"/>
</g>
<defs>
<clipPath id="clip0_1855_14655">
<rect width="20" height="20" fill="white"/>
</clipPath>
</defs>
</svg>
