<svg width="20" height="20" viewBox="0 0 20 20" fill="none" xmlns="http://www.w3.org/2000/svg">
<g clip-path="url(#clip0_2067_16372)">
<path d="M18.6047 10C18.6047 12.2821 17.6981 14.4707 16.0844 16.0844C14.4707 17.6981 12.2821 18.6047 10 18.6047V20C15.5228 20 20 15.5228 20 10H18.6047ZM10 18.6047C7.71791 18.6047 5.52928 17.6981 3.91559 16.0844C2.30191 14.4707 1.39535 12.2821 1.39535 10H0C0 15.5228 4.47721 20 10 20V18.6047ZM1.39535 10C1.39535 7.71791 2.30191 5.52928 3.91559 3.91559C5.52928 2.30191 7.71791 1.39535 10 1.39535V0C4.47721 0 0 4.47721 0 10H1.39535ZM13.2558 12.093C11.8372 12.093 10.4767 11.5295 9.47362 10.5264C8.47051 9.52328 7.90698 8.16279 7.90698 6.74419H6.51163C6.51163 8.53286 7.22217 10.2483 8.48695 11.513C9.75173 12.7778 11.4671 13.4884 13.2558 13.4884V12.093ZM17.8372 9.50605C17.3612 10.2955 16.6893 10.9485 15.8866 11.4018C15.0839 11.855 14.1777 12.0932 13.2558 12.093V13.4884C14.418 13.4887 15.5606 13.1887 16.5728 12.6174C17.5849 12.0462 18.4322 11.2231 19.0326 10.2279L17.8372 9.50605ZM7.90698 6.74419C7.90685 5.82235 8.14496 4.91613 8.59822 4.11342C9.05149 3.31072 9.70451 2.63878 10.494 2.16279L9.77209 0.968372C8.77707 1.56864 7.95403 2.41582 7.38278 3.42778C6.81153 4.43973 6.51144 5.58213 6.51163 6.74419H7.90698ZM10 1.39535C9.95325 1.39445 9.90714 1.38429 9.86435 1.36544C9.82156 1.3466 9.78293 1.31946 9.7507 1.28558C9.71148 1.24619 9.68492 1.19598 9.67442 1.1414C9.6707 1.11256 9.67256 1.02884 9.77209 0.968372L10.494 2.16279C10.9619 1.88 11.1126 1.36186 11.0577 0.954419C11 0.531163 10.667 0 10 0V1.39535ZM19.0326 10.2279C18.9712 10.3274 18.8874 10.3293 18.8586 10.3256C18.804 10.3151 18.7538 10.2885 18.7144 10.2493C18.6805 10.2171 18.6534 10.1784 18.6346 10.1356C18.6157 10.0929 18.6056 10.0467 18.6047 10H20C20 9.33302 19.4688 9 19.0456 8.94233C18.6381 8.88744 18.12 9.03814 17.8372 9.50605L19.0326 10.2279Z" fill="#959595"/>
</g>
<defs>
<clipPath id="clip0_2067_16372">
<rect width="20" height="20" fill="white"/>
</clipPath>
</defs>
</svg>
