<svg width="16" height="16" viewBox="0 0 16 16" fill="none" xmlns="http://www.w3.org/2000/svg">
<g clip-path="url(#clip0_759_19911)">
<path d="M3.55534 16C3.06645 16 2.64808 15.8261 2.30023 15.4782C1.95238 15.1304 1.77815 14.7117 1.77756 14.2222V2.66667H0.888672V0.888889H5.33312V0H10.6664V0.888889H15.1109V2.66667H14.222V14.2222C14.222 14.7111 14.0481 15.1298 13.7002 15.4782C13.3524 15.8267 12.9337 16.0006 12.4442 16H3.55534ZM12.4442 2.66667H3.55534V14.2222H12.4442V2.66667ZM5.33312 12.4444H7.11089V4.44444H5.33312V12.4444ZM8.88867 12.4444H10.6664V4.44444H8.88867V12.4444Z" fill="#FE5C5A"/>
</g>
<defs>
<clipPath id="clip0_759_19911">
<rect width="16" height="16" fill="white"/>
</clipPath>
</defs>
</svg>
