<svg width="20" height="20" viewBox="0 0 20 20" fill="none" xmlns="http://www.w3.org/2000/svg">
<path d="M3.75 10.625H8.75V11.875H3.75V10.625Z" fill="#959595"/>
<path d="M1.875 11.875C2.22018 11.875 2.5 11.5952 2.5 11.25C2.5 10.9048 2.22018 10.625 1.875 10.625C1.52982 10.625 1.25 10.9048 1.25 11.25C1.25 11.5952 1.52982 11.875 1.875 11.875Z" fill="#959595"/>
<path d="M8.125 9.375C8.47018 9.375 8.75 9.09518 8.75 8.75C8.75 8.40482 8.47018 8.125 8.125 8.125C7.77982 8.125 7.5 8.40482 7.5 8.75C7.5 9.09518 7.77982 9.375 8.125 9.375Z" fill="#959595"/>
<path d="M1.25 8.125H6.25V9.375H1.25V8.125ZM3.75 5.625H8.75V6.875H3.75V5.625Z" fill="#959595"/>
<path d="M1.875 6.875C2.22018 6.875 2.5 6.59518 2.5 6.25C2.5 5.90482 2.22018 5.625 1.875 5.625C1.52982 5.625 1.25 5.90482 1.25 6.25C1.25 6.59518 1.52982 6.875 1.875 6.875Z" fill="#959595"/>
<path d="M18.75 17.875L14.125 13.25C15.0625 12 15.625 10.4375 15.625 8.75C15.625 4.625 12.25 1.25 8.125 1.25C6.0625 1.25 4.125 2.0625 2.6875 3.625L3.625 4.5C4.75 3.1875 6.375 2.5 8.125 2.5C11.5625 2.5 14.375 5.3125 14.375 8.75C14.375 12.1875 11.5625 15 8.125 15C6.25 15 4.5 14.1875 3.3125 12.75L2.375 13.5625C3.75 15.25 5.875 16.25 8.125 16.25C10.125 16.25 11.9375 15.4375 13.3125 14.1875L17.875 18.75L18.75 17.875Z" fill="#959595"/>
</svg>
