<svg width="24" height="24" viewBox="0 0 24 24" fill="none" xmlns="http://www.w3.org/2000/svg">
<path d="M2.99326 4.38049H19.8187C21.406 4.38049 22.206 5.1297 22.206 6.65351V17.3456C22.206 18.8567 21.406 19.6186 19.8187 19.6186H2.99326C1.40596 19.6186 0.605957 18.8567 0.605957 17.3456V6.65351C0.605957 5.1297 1.40596 4.38049 2.99326 4.38049ZM11.3996 15.3011L19.9583 8.27891C20.2631 8.02494 20.5044 7.44081 20.1234 6.92018C19.7552 6.39954 19.0821 6.38684 18.6377 6.7043L11.3996 11.6059L4.17421 6.7043C3.72977 6.38684 3.05675 6.39954 2.6885 6.92018C2.30754 7.44081 2.54881 8.02494 2.85358 8.27891L11.3996 15.3011Z" fill="white"/>
</svg>
