<svg width="20" height="20" viewBox="0 0 20 20" fill="none" xmlns="http://www.w3.org/2000/svg">
<g clip-path="url(#clip0_759_28795)">
<path d="M9.99967 18.5418C14.7171 18.5418 18.5413 14.7176 18.5413 10.0002C18.5413 5.28273 14.7171 1.4585 9.99967 1.4585C5.28224 1.4585 1.45801 5.28273 1.45801 10.0002C1.45801 14.7176 5.28224 18.5418 9.99967 18.5418Z" stroke="#ECC434" stroke-width="1.38514" stroke-linecap="round" stroke-linejoin="round"/>
<path d="M7.22947 8.84616C7.86697 8.84616 8.38375 8.32937 8.38375 7.69188C8.38375 7.05439 7.86697 6.5376 7.22947 6.5376C6.59198 6.5376 6.0752 7.05439 6.0752 7.69188C6.0752 8.32937 6.59198 8.84616 7.22947 8.84616Z" fill="#ECC434"/>
<path d="M12.7695 8.84616C13.407 8.84616 13.9238 8.32937 13.9238 7.69188C13.9238 7.05439 13.407 6.5376 12.7695 6.5376C12.132 6.5376 11.6152 7.05439 11.6152 7.69188C11.6152 8.32937 12.132 8.84616 12.7695 8.84616Z" fill="#ECC434"/>
<path d="M13.1983 12.0781C12.8741 12.6396 12.4078 13.1058 11.8463 13.43C11.2848 13.7542 10.6479 13.9248 9.99952 13.9248C9.35117 13.9248 8.71425 13.7542 8.15275 13.43C7.59126 13.1058 7.12498 12.6396 6.80078 12.0781" stroke="#ECC434" stroke-width="1.38514" stroke-linecap="round" stroke-linejoin="round"/>
</g>
<defs>
<clipPath id="clip0_759_28795">
<rect width="20" height="20" fill="white"/>
</clipPath>
</defs>
</svg>
