<svg width="16" height="16" viewBox="0 0 16 16" fill="none" xmlns="http://www.w3.org/2000/svg">
<g clip-path="url(#clip0_759_52963)">
<path d="M8 7.91459C9.36218 7.91459 10.5964 8.3655 11.5018 8.99605C12.3622 9.59605 13.0909 10.4877 13.0909 11.447C13.0909 11.9735 12.8662 12.4099 12.512 12.7342C12.1789 13.0404 11.744 13.239 11.296 13.3742C10.4007 13.6455 9.22182 13.7328 8 13.7328C6.77818 13.7328 5.59927 13.6455 4.704 13.3742C4.256 13.239 3.82109 13.0404 3.48727 12.7342C3.13455 12.4106 2.90909 11.9742 2.90909 11.4477C2.90909 10.4884 3.63782 9.59678 4.49818 8.99678C5.40364 8.3655 6.63782 7.91459 8 7.91459ZM13.0909 8.64187C13.8502 8.64187 14.5396 8.89278 15.0495 9.24769C15.5149 9.57278 16 10.1131 16 10.772C16 11.148 15.8364 11.46 15.5927 11.6833C15.3702 11.8877 15.0953 12.0077 14.8444 12.0833C14.5025 12.1866 14.0989 12.2397 13.68 12.263C13.7687 12.012 13.8182 11.7393 13.8182 11.447C13.8182 10.3306 13.1207 9.38223 12.3404 8.72405C12.5868 8.6696 12.8385 8.64205 13.0909 8.64187ZM2.90909 8.64187C3.16945 8.64284 3.41964 8.67023 3.65964 8.72405C2.88 9.38223 2.18182 10.3306 2.18182 11.447C2.18182 11.7393 2.23127 12.012 2.32 12.263C1.90109 12.2397 1.49818 12.1866 1.15564 12.0833C0.904727 12.0077 0.629818 11.8877 0.406546 11.6833C0.278565 11.5687 0.176206 11.4283 0.106153 11.2714C0.0361006 11.1145 -7.11774e-05 10.9446 1.05151e-07 10.7728C1.05151e-07 10.1146 0.484364 9.5735 0.950545 9.24841C1.52717 8.8531 2.20997 8.64165 2.90909 8.64187ZM12.7273 4.27823C13.2095 4.27823 13.6719 4.46979 14.0129 4.81076C14.3539 5.15174 14.5455 5.6142 14.5455 6.09641C14.5455 6.57862 14.3539 7.04109 14.0129 7.38206C13.6719 7.72304 13.2095 7.91459 12.7273 7.91459C12.2451 7.91459 11.7826 7.72304 11.4416 7.38206C11.1006 7.04109 10.9091 6.57862 10.9091 6.09641C10.9091 5.6142 11.1006 5.15174 11.4416 4.81076C11.7826 4.46979 12.2451 4.27823 12.7273 4.27823ZM3.27273 4.27823C3.75494 4.27823 4.2174 4.46979 4.55838 4.81076C4.89935 5.15174 5.09091 5.6142 5.09091 6.09641C5.09091 6.57862 4.89935 7.04109 4.55838 7.38206C4.2174 7.72304 3.75494 7.91459 3.27273 7.91459C2.79052 7.91459 2.32805 7.72304 1.98708 7.38206C1.6461 7.04109 1.45455 6.57862 1.45455 6.09641C1.45455 5.6142 1.6461 5.15174 1.98708 4.81076C2.32805 4.46979 2.79052 4.27823 3.27273 4.27823ZM8 1.36914C8.77154 1.36914 9.51148 1.67563 10.057 2.22119C10.6026 2.76675 10.9091 3.50669 10.9091 4.27823C10.9091 5.04977 10.6026 5.78971 10.057 6.33527C9.51148 6.88083 8.77154 7.18732 8 7.18732C7.22846 7.18732 6.48852 6.88083 5.94296 6.33527C5.3974 5.78971 5.09091 5.04977 5.09091 4.27823C5.09091 3.50669 5.3974 2.76675 5.94296 2.22119C6.48852 1.67563 7.22846 1.36914 8 1.36914Z" fill="white"/>
</g>
<defs>
<clipPath id="clip0_759_52963">
<rect width="16" height="16" fill="white"/>
</clipPath>
</defs>
</svg>
