<svg width="24" height="24" viewBox="0 0 24 24" fill="none" xmlns="http://www.w3.org/2000/svg">
<path opacity="0.987" fill-rule="evenodd" clip-rule="evenodd" d="M10.8134 1.59149C11.9009 1.46999 12.5444 1.46999 13.7129 1.59149C15.7813 1.89763 17.6987 2.85372 19.1879 4.32149C18.1816 5.27269 17.1885 6.23779 16.2089 7.21649C14.3329 5.62649 12.2389 5.25949 9.92687 6.11549C8.23087 6.89549 7.04987 8.15949 6.38387 9.90749C5.29554 9.09724 4.22137 8.26811 3.16188 7.42049C3.08824 7.38173 3.00415 7.36754 2.92188 7.37999C4.60487 4.13499 7.23488 2.20499 10.8119 1.58999" fill="#F44336"/>
<path opacity="0.997" fill-rule="evenodd" clip-rule="evenodd" d="M2.91889 7.38003C3.00389 7.36703 3.08439 7.38053 3.16039 7.42053C4.21989 8.26815 5.29405 9.09727 6.38239 9.90753C6.21113 10.5886 6.10317 11.2841 6.05989 11.985C6.09689 12.663 6.20439 13.3285 6.38239 13.9815L2.99989 16.674C1.52689 13.596 1.49989 10.498 2.91889 7.38003Z" fill="#FFC107"/>
<path opacity="0.999" fill-rule="evenodd" clip-rule="evenodd" d="M19.0271 19.935C17.9739 19.0061 16.8713 18.1349 15.7241 17.325C16.8741 16.513 17.5721 15.399 17.8181 13.983H12.1826V10.0695C15.4326 10.0425 18.6811 10.07 21.9281 10.152C22.5441 13.497 21.8326 16.513 19.7936 19.2C19.5512 19.4577 19.2943 19.703 19.0271 19.935Z" fill="#448AFF"/>
<path opacity="0.993" fill-rule="evenodd" clip-rule="evenodd" d="M6.38274 13.983C7.61274 17.04 9.86774 18.467 13.1477 18.264C14.0685 18.1574 14.9513 17.8358 15.7247 17.325C16.8727 18.137 17.9737 19.007 19.0277 19.935C17.3577 21.4357 15.2284 22.3261 12.9872 22.461C12.4781 22.5017 11.9664 22.5017 11.4572 22.461C7.63924 22.011 4.82024 20.082 3.00024 16.674L6.38274 13.983Z" fill="#43A047"/>
</svg>
