<svg width="20" height="20" viewBox="0 0 20 20" fill="none" xmlns="http://www.w3.org/2000/svg">
<path d="M9.85841 11.666V11.1485C9.85801 10.8075 9.94746 10.4723 10.1177 10.1768C10.288 9.8813 10.5331 9.63586 10.8284 9.46518C11.7667 8.91518 12.0901 7.75102 11.5401 6.81268C10.9901 5.87435 9.82591 5.55102 8.88758 6.10102C8.30425 6.45768 7.91675 7.07185 7.91675 7.78352M10.0001 14.166H9.99341M18.3334 9.99935C18.3334 5.39685 14.6026 1.66602 10.0001 1.66602C5.39758 1.66602 1.66675 5.39685 1.66675 9.99935C1.66675 14.6018 5.39758 18.3327 10.0001 18.3327C14.6026 18.3327 18.3334 14.6018 18.3334 9.99935Z" stroke="#959595" stroke-width="1.25" stroke-miterlimit="10" stroke-linecap="round" stroke-linejoin="round"/>
</svg>
