<svg width="278" height="177" viewBox="0 0 278 177" fill="none" xmlns="http://www.w3.org/2000/svg">
<path d="M278 0H0V177H278V0Z" fill="white"/>
<path opacity="0.3" d="M251.297 136.259H220.27C223.59 133.201 225.708 128.571 225.708 123.388V119.58C225.708 108.548 233.714 99.6041 243.59 99.6041C253.713 99.6041 261.921 90.4355 261.921 79.126C261.921 67.8166 253.714 58.648 243.59 58.648H240.586C230.71 58.648 222.704 49.7042 222.704 38.6718C222.704 29.4652 216.023 22.002 207.782 22.002H91.189C82.016 22.002 74.5806 30.3086 74.5806 40.556C74.5806 47.5608 78.0558 53.6584 83.1856 56.8161H62.7044C54.163 56.8161 47.2391 63.9749 47.2391 72.8054C47.2391 83.3882 38.9415 91.9665 28.7058 91.9665H25.5936C15.1008 91.9665 6.59473 100.761 6.59473 111.609C6.59473 122.457 15.1008 131.252 25.5936 131.252C35.8293 131.252 44.1269 139.831 44.1269 150.413V154.066C44.1269 162.897 51.0509 170.055 59.5923 170.055H131.558C132.101 170.108 132.651 170.136 133.207 170.136H251.297C260.635 170.136 268.204 162.552 268.204 153.197C268.204 143.842 260.635 136.258 251.297 136.258L251.297 136.259Z" fill="#9BC1F9"/>
<path d="M81.3327 115.926C80.8618 115.925 80.4784 116.468 80.4775 117.141C80.4758 117.813 80.8565 118.359 81.3274 118.36C81.7982 118.362 82.1816 117.818 82.1825 117.145C82.1842 116.473 81.8035 115.928 81.3327 115.926ZM81.3318 116.27C81.5844 116.27 81.7894 116.397 81.7885 116.553C81.7885 116.709 81.5827 116.835 81.33 116.834C81.0774 116.834 80.8724 116.706 80.8733 116.551C80.8733 116.395 81.0791 116.269 81.3318 116.27ZM81.3274 117.904C80.9705 117.904 80.6825 117.707 80.6834 117.467C80.6834 117.228 80.9731 117.034 81.33 117.035C81.6869 117.036 81.9749 117.231 81.974 117.471C81.974 117.711 81.6842 117.905 81.3274 117.904Z" fill="#466EB6"/>
<path d="M79.3975 118.613C79.2182 119 79.1245 119.42 79.1236 119.847L79.1016 128.758C79.1007 129.296 79.5388 129.733 80.0821 129.735L85.1686 129.747C85.711 129.748 86.1518 129.314 86.1536 128.776L86.1757 119.865C86.1766 119.439 86.0847 119.018 85.908 118.63L79.3984 118.614L79.3975 118.613Z" fill="#7F1CA0"/>
<path d="M79.3975 118.613C79.2182 119 79.1245 119.42 79.1236 119.847L79.1016 128.758C79.1007 129.296 79.5388 129.733 80.0821 129.735L85.1686 129.747C85.711 129.748 86.1518 129.314 86.1536 128.776L86.1757 119.865C86.1766 119.439 86.0847 119.018 85.908 118.63L79.3984 118.614L79.3975 118.613Z" fill="#7F1CA0"/>
<path d="M86.1757 119.864L86.1536 128.776C86.1527 129.314 85.711 129.749 85.1686 129.747L80.0821 129.735C79.5388 129.733 79.1007 129.296 79.1016 128.758L79.1236 119.846C79.1245 119.42 79.2182 119 79.3975 118.613L85.9071 118.629C86.0838 119.017 86.1766 119.438 86.1757 119.864Z" fill="#F47458"/>
<path d="M80.4505 128.762L80.4726 119.851C80.4735 119.425 80.5671 119.004 80.7464 118.617L79.3975 118.613C79.2182 119 79.1245 119.42 79.1236 119.847L79.1016 128.758C79.1007 129.296 79.5388 129.733 80.0821 129.735L81.431 129.739C80.8886 129.737 80.4496 129.3 80.4505 128.762Z" fill="#F48C7F"/>
<path d="M86.1754 119.865L86.1533 128.777C86.1524 129.315 85.7107 129.75 85.1683 129.749L83.0889 129.743C83.6366 129.745 84.0827 129.309 84.0844 128.772L84.1065 119.86C84.1074 119.434 84.0138 119.014 83.8353 118.625L85.9068 118.63C86.0835 119.018 86.1763 119.439 86.1754 119.865Z" fill="#B75742"/>
<path d="M85.907 118.63L79.3965 118.614C79.3965 118.329 79.6306 118.099 79.9177 118.1L85.3876 118.113C85.6747 118.113 85.907 118.345 85.9061 118.63H85.907Z" fill="#13375B"/>
<path d="M79.1043 126.998L79.1016 128.105L86.1527 128.123L86.1554 127.016L79.1043 126.998Z" fill="#355389"/>
<path d="M72.9907 115.744H73.7681C73.6409 115.657 73.4819 115.605 73.3087 115.605H53.8249C52.8055 115.605 51.9795 116.339 51.9795 117.244V118.285C51.9795 119.191 52.8055 119.924 53.8249 119.924L73.0905 119.918L72.9907 115.744V115.744Z" fill="#86B1F2"/>
<path d="M61.9281 115.609C60.9528 115.609 60.1631 116.311 60.1631 117.177V118.353C60.1631 119.218 60.9537 119.92 61.9281 119.92H74.0569V119.657H74.0066L70.9227 119.398L70.299 117.227C70.299 117.227 71.5022 116.027 71.5799 115.996C71.6585 115.965 74.0057 115.871 74.0057 115.871H74.056V115.609H61.9272H61.9281Z" fill="#466EB6"/>
<path d="M73.271 117.758C73.271 116.489 74.0096 115.873 74.0096 115.873H62.1767C61.2809 115.873 60.5557 116.517 60.5557 117.313V118.218C60.5557 119.014 61.2818 119.658 62.1767 119.658H74.0096C74.0096 119.658 73.271 119.356 73.271 117.758Z" fill="#FAE0B2"/>
<path d="M60.5557 117.313V118.218C60.5557 118.338 60.5724 118.453 60.6034 118.563C61.0027 117.696 61.7677 116.861 63.2235 116.593C66.6227 115.966 74.0104 115.873 74.0104 115.873H62.1776C61.2818 115.873 60.5565 116.517 60.5565 117.313H60.5557Z" fill="#DAEEF7"/>
<path d="M72.6692 124.379H73.549C73.4051 124.271 73.2248 124.205 73.0287 124.205H50.9769C49.8232 124.205 48.8877 125.124 48.8877 126.257V127.56C48.8877 128.693 49.8232 129.612 50.9769 129.612L72.7823 129.604L72.6692 124.379Z" fill="#50BFA5"/>
<path d="M60.1506 124.208C59.0473 124.208 58.1533 125.087 58.1533 126.17V127.643C58.1533 128.726 59.0473 129.605 60.1506 129.605H73.8784V129.275H73.8218L70.3316 128.951L69.6267 126.233C69.6267 126.233 70.988 124.731 71.0772 124.692C71.1664 124.653 73.8218 124.535 73.8218 124.535H73.8784V124.207H60.1506V124.208Z" fill="#3C8F7C"/>
<path d="M72.9878 126.898C72.9878 125.31 73.8235 124.539 73.8235 124.539H60.4315C59.4182 124.539 58.5967 125.346 58.5967 126.341V127.475C58.5967 128.47 59.4182 129.276 60.4315 129.276H73.8235C73.8235 129.276 72.9878 128.899 72.9878 126.898V126.898Z" fill="#FAE0B2"/>
<path d="M58.5967 126.342V127.475C58.5967 127.624 58.6152 127.769 58.6506 127.907C59.102 126.822 59.9677 125.776 61.6161 125.44C65.4632 124.655 73.8244 124.539 73.8244 124.539H60.4323C59.4191 124.539 58.5976 125.346 58.5976 126.341L58.5967 126.342Z" fill="#DAEEF7"/>
<path d="M48.162 120.052H47.2812C47.4252 119.965 47.6055 119.914 47.8016 119.914H69.8614C71.0159 119.914 71.9514 120.643 71.9514 121.542V122.576C71.9514 123.475 71.0159 124.205 69.8614 124.205L48.048 124.198L48.1611 120.052H48.162Z" fill="#F47458"/>
<path d="M60.6852 119.918C61.7885 119.918 62.6834 120.615 62.6834 121.475V122.643C62.6834 123.503 61.7885 124.2 60.6852 124.2H46.9521V123.939H47.0087L50.4998 123.681L51.2056 121.524C51.2056 121.524 49.8435 120.332 49.7551 120.302C49.6659 120.271 47.0087 120.178 47.0087 120.178H46.9521V119.918H60.6852Z" fill="#B75742"/>
<path d="M47.8444 122.051C47.8444 120.79 47.0078 120.18 47.0078 120.18H60.4052C61.4193 120.18 62.2408 120.82 62.2408 121.61V122.509C62.2408 123.298 61.4193 123.939 60.4052 123.939H47.0078C47.0078 123.939 47.8444 123.639 47.8444 122.051Z" fill="#FAE0B2"/>
<path d="M62.2408 121.61V122.509C62.2408 122.628 62.2223 122.742 62.1869 122.852C61.7355 121.991 60.8689 121.162 59.2206 120.895C55.3717 120.272 47.0078 120.18 47.0078 120.18H60.4052C61.4193 120.18 62.2408 120.82 62.2408 121.61Z" fill="#DAEEF7"/>
<path d="M129.141 122.35L127.072 121.957L118.092 169.437L120.16 169.829L129.141 122.35Z" fill="#184655"/>
<path d="M188.769 170.053H191.256L181.986 121.957L179.918 122.35L188.769 170.053Z" fill="#184655"/>
<path d="M143.225 170.053H145.712L136.442 121.957L134.373 122.35L143.225 170.053Z" fill="#184655"/>
<path d="M166.103 170.052L164.083 170.076L172.972 122.172L175.04 122.564L166.103 170.052Z" fill="#184655"/>
<path d="M157.079 57.181C165.269 58.0598 175.868 58.9864 186.507 77.0758C198.136 96.8458 192.014 126.378 182.836 134.585C173.658 142.791 143.681 152.925 118.482 137.755C118.482 137.755 103.266 128.562 111.075 113.305C123.091 89.826 121.393 84.9301 126.766 75.7288C132.139 66.5275 139.694 55.3172 157.078 57.1819L157.079 57.181Z" fill="#FAE0B2"/>
<path d="M186.507 77.0768C179.245 64.7301 172.002 60.3795 165.531 58.582C168.034 61.1769 170.572 64.5151 173.112 68.833C184.74 88.603 178.619 118.135 169.44 126.342C161.301 133.619 136.805 142.409 113.789 133.727C116.156 136.35 118.482 137.755 118.482 137.755C143.681 152.925 173.658 142.792 182.836 134.585C192.014 126.378 198.136 96.8468 186.507 77.0759V77.0768Z" fill="#F7CC7F"/>
<path d="M43.4578 71.1943C43.2255 73.028 45.1318 74.4839 46.8279 74.3688C48.7024 74.2423 50.2925 72.7024 50.5664 70.8571C50.8632 68.8597 49.6653 67.2623 47.812 67.1162C46.0081 66.9738 44.8535 68.5827 45.3747 70.2058C45.7484 71.3695 46.8085 71.8032 47.3429 71.4819C47.759 71.2315 47.7342 70.6005 47.2298 70.489C47.0275 70.4447 46.8199 70.5571 46.7122 70.7129C46.2705 70.5376 45.8509 69.7323 46.1362 68.8632C46.5002 67.7534 47.9012 67.6897 48.7705 68.2074C49.8773 68.8668 50.0514 70.2854 49.6459 71.4156C49.2192 72.6024 48.0558 73.5378 46.789 73.6281C45.3535 73.7298 44.0903 72.628 43.9763 71.1952C43.949 70.8571 43.5002 70.8651 43.4587 71.1934L43.4578 71.1943Z" fill="#F48C7F"/>
<path d="M169.65 9.97506C161.174 9.92462 154.277 14.1124 154.246 19.3295C154.231 21.9376 155.934 24.3094 158.702 26.0352L155.216 33.7055L162.491 27.7698C164.599 28.4556 166.995 28.8512 169.538 28.8663C178.014 28.9167 184.91 24.7289 184.941 19.5118C184.972 14.2956 178.126 10.0255 169.649 9.97506H169.65Z" fill="#FAE0B2"/>
<path d="M163.778 20.3181C164.53 23.1802 167.456 24.8883 170.313 24.1342C173.169 23.3793 174.875 20.4482 174.121 17.5861C173.369 14.724 170.443 13.016 167.586 13.77C164.73 14.5249 163.024 17.456 163.778 20.3181Z" fill="#F7CC7F"/>
<path d="M171.93 19.043C172.333 20.5731 171.422 22.1405 169.894 22.544C168.367 22.9476 166.803 22.0343 166.4 20.5041L171.93 19.043Z" fill="#EFEFEF"/>
<path d="M82.1563 84.0384L105.559 83.8622C106.093 83.8578 106.523 83.4206 106.519 82.8852L106.402 67.2101C106.397 66.6747 105.961 66.2437 105.426 66.2481L82.0237 66.4242C81.4893 66.4286 81.0591 66.8658 81.0635 67.4012L81.181 83.0764C81.1854 83.6118 81.6218 84.0428 82.1563 84.0384Z" fill="#F47458"/>
<path d="M105.684 74.9668L113.239 82.6805L103.918 80.9379L105.684 74.9668Z" fill="#F47458"/>
<path d="M98.8658 73.88L96.592 73.8393C96.592 73.8393 93.7263 71.6958 93.6388 70.9383C93.5514 70.1807 94.0205 68.5771 93.5761 68.3762C93.1318 68.1753 92.1901 68.016 91.5956 69.0187C91.1636 69.747 91.5231 72.4056 91.2564 72.5826C91.0894 72.6941 89.782 72.7074 88.8262 72.7021C88.1981 72.6985 87.6204 73.0446 87.3262 73.6003V73.6021C87.1265 73.9782 87.2167 74.442 87.5426 74.7145L88.0497 75.1393L87.6504 75.6703C87.3536 76.0659 87.4304 76.6279 87.8235 76.9279L88.2237 77.2341L87.9499 77.5474C87.5965 77.9501 87.6716 78.5714 88.1097 78.8785L88.4658 79.128L88.4119 79.2263C88.1893 79.6369 88.3173 80.1493 88.706 80.4069L89.0638 80.644L95.1203 80.752C95.6874 80.7618 96.251 80.6555 96.7757 80.4396L98.9117 80.1245C99.1414 80.0909 99.3119 79.8936 99.3119 79.6608L99.3252 74.3499C99.3252 74.0933 99.1211 73.8835 98.8649 73.8791L98.8658 73.88Z" fill="white"/>
<path d="M130.786 87.2324L128.681 93.5593L135.097 91.0308L130.786 87.2324Z" fill="#F79C8D"/>
<path d="M137.4 68.4043C136.972 68.422 135.8 68.8132 134.086 72.047C131.898 76.1764 128.699 88.6513 128.699 88.6513L138.247 92.2011L139.474 89.5974L141.494 69.5522C141.494 69.5522 137.519 68.399 137.401 68.4043H137.4Z" fill="#042A44"/>
<path d="M150.02 66.6074C147.29 66.611 140.535 67.4066 137.4 68.4066C137.4 68.4066 135.097 88.1722 139.473 103.192C140.452 106.555 138.663 117.129 138.663 117.129L166.954 116.757C166.954 116.757 163.602 91.191 164.865 87.0615C166.127 82.9321 166.157 68.5403 166.157 68.5403C166.157 68.5403 165.964 68.5102 159.801 67.4464C156.927 66.9499 152.936 66.6039 150.02 66.6083V66.6074Z" fill="#07345A"/>
<path d="M153.317 153.814C153.317 153.814 152.691 161.027 151.54 163.024C150.389 165.021 151.601 168.416 151.661 168.882C151.722 169.349 154.083 170.014 157.839 169.615C161.594 169.216 161.533 168.351 161.23 166.952C160.927 165.554 158.929 163.757 158.808 162.425C158.687 161.094 159.959 156.3 159.959 156.3L153.317 153.815V153.814Z" fill="#F7A491"/>
<path d="M141.854 111.176C141.854 111.176 122.325 110.093 117.964 112.73C113.603 115.367 118.753 120.781 118.753 120.781C118.753 120.781 134.652 127.683 161.269 129.217C167.572 129.58 168.115 112.808 166.937 111.42C165.758 110.032 141.855 111.175 141.855 111.175L141.854 111.176Z" fill="#327F6B"/>
<path d="M158.307 170.176C162.173 169.765 161.696 167.868 161.384 166.428C161.188 165.526 160.079 164.464 159.418 163.459C159.073 163.734 158.51 164.219 156.831 164.715C155.087 165.229 152.697 164.211 151.174 163.574C150.63 165.591 150.606 168.164 150.657 168.554C150.72 169.034 154.44 170.588 158.307 170.176Z" fill="#355389"/>
<path d="M156.173 125.124C155.393 131.019 151.53 160.365 151.53 160.365L160.494 161.475C160.494 161.475 171.517 123.171 170.951 117.312C170.386 111.454 166.26 110.961 166.26 110.961C166.26 110.961 158.239 109.519 156.173 125.124Z" fill="#3C8F7C"/>
<path d="M147.585 41.6695C147.585 41.6695 150.563 38.5233 152.959 42.3509C152.959 42.3509 154.804 41.3128 156.099 43.1616C156.099 43.1616 159.433 42.1562 160.243 47.1503C160.243 47.1503 161.959 46.8263 162.186 48.8689C162.413 50.9124 161.376 52.2744 161.376 52.2744C161.376 52.2744 162.34 52.9983 161.902 54.8772C161.53 56.4746 160.21 56.718 160.21 56.718C160.21 56.718 159.854 59.4102 158.689 60.2208C157.524 61.0315 155.937 60.6421 155.937 60.6421C155.937 60.6421 155.517 62.1014 154.157 61.9714C152.798 61.8413 151.114 60.5447 149.593 61.1279C148.072 61.712 144.122 61.0952 144.122 61.0952C144.122 61.0952 139.688 59.1172 141.015 54.5763C141.015 54.5763 138.684 52.4682 140.723 49.9389C140.723 49.9389 139.234 45.9821 142.18 43.6474C145.126 41.3128 147.586 41.6695 147.586 41.6695H147.585Z" fill="#07345A"/>
<path d="M148.09 63.0277L147.551 67.035C147.551 67.035 146.343 72.8079 147.897 73.9203C149.451 75.0336 154.505 66.8704 154.505 66.8704L153.971 56.7168L148.09 63.0277H148.09Z" fill="#F7A491"/>
<path d="M154.142 60.0072C152.859 63.4702 149.802 65.5995 147.633 66.4252L148.09 63.0277L153.97 56.7168L154.142 60.0072Z" fill="#F47458"/>
<path d="M150.379 46.0493C147.226 44.9616 143.865 47.0599 143.383 50.3167C143.174 51.7318 142.985 53.5116 142.949 55.4577C142.865 60.1376 145.283 64.6927 147.404 64.6927C149.525 64.6927 155.388 61.6633 155.6 55.0187C155.731 50.9168 153.687 47.1909 150.379 46.0493Z" fill="#F7A491"/>
<path d="M154.038 55.5429C154.038 56.5757 154.721 57.4121 155.564 57.4121C156.406 57.4121 157.089 56.5749 157.089 55.5429C157.089 54.511 156.406 53.6738 155.564 53.6738C154.721 53.6738 154.038 54.511 154.038 55.5429Z" fill="#F7A491"/>
<path d="M141.189 43.7205C138.998 45.4596 138.229 48.1022 139.473 49.6226C140.717 51.143 143.502 50.966 145.693 49.227C147.884 47.488 148.652 44.8454 147.408 43.3249C146.164 41.8045 143.38 41.9815 141.188 43.7205H141.189Z" fill="#07345A"/>
<path d="M166.465 70.737C163.82 69.7467 162.526 93.5426 162.169 103.337C157.485 103.786 149.321 103.34 147.288 103.188C146.332 103.117 144.127 102.31 143.177 102.186C142.202 102.059 141.319 101.993 140.84 102.076C140.664 102.107 135.782 104.1 135.364 104.537C134.846 105.079 133.445 106.447 133.682 107.038C133.919 107.629 136.376 105.39 136.376 105.39L137.576 104.717C136.081 106.175 133.23 108.096 133.641 108.795C134.041 109.476 136.613 107.528 138.446 106.2C136.874 107.618 134.921 110.155 135.371 110.551C135.776 110.906 137.997 107.969 140.372 107.123C141.252 106.81 142.129 107.678 142.821 107.782C143.33 107.859 144.115 108.023 144.614 107.882L147.185 107.154C148.06 107.233 148.082 107.75 148.966 107.938C149.993 108.157 151.677 108.386 152.985 108.705C160.514 110.542 163.025 111.395 165.33 111.394C172.312 111.389 172.717 73.0787 166.466 70.7379L166.465 70.737Z" fill="#F7A491"/>
<path d="M171.486 93.0766C171.981 83.0442 171.909 70.6781 166.276 68.5683C164.053 67.7355 160.135 72.741 160.839 93.2801C163.846 93.5279 168.261 93.7279 171.485 93.0766H171.486Z" fill="#07345A"/>
<path d="M139.971 88.7656H140.545L149.177 109.945L148.583 109.854L139.971 88.7656Z" fill="#F79C8D"/>
<path d="M127.105 159.984C127.105 159.984 127.887 162.488 126.487 164.144C125.087 165.8 119.267 167.425 118.503 168.321C117.739 169.218 117.797 169.981 117.797 169.981L134.131 169.533L133.953 164.608L133.201 161.069L127.106 159.984H127.105Z" fill="#F7A491"/>
<path d="M125.47 164.969C125.47 164.969 129.667 166.664 131.694 165.66C133.722 164.657 133.661 164.379 134.247 164.753C134.834 165.128 135.044 169.745 135.044 169.745L116.678 170.284C115.399 170.254 114.754 169.314 115.792 168.51C116.504 167.959 117.326 167.589 117.794 167.321C119.231 166.498 125.471 164.97 125.471 164.97L125.47 164.969Z" fill="#355389"/>
<path d="M127.724 115.798C126.461 113.145 123.59 109.692 118.538 111.772C113.72 113.756 112.427 118.632 113.947 123.624C115.468 128.616 125.476 157.965 125.825 162.001L133.816 162.054C133.816 162.054 132.363 138.815 132.007 133.198C131.665 127.793 129.909 120.389 127.725 115.798H127.724Z" fill="#3C8F7C"/>
<path d="M114.752 88.7646H141.463C142.169 88.7646 142.806 89.192 143.074 89.8478L151.298 109.943H166.024C166.436 109.943 166.77 110.278 166.77 110.69C166.77 111.102 166.436 111.436 166.024 111.436H124.113C122.961 111.436 121.916 110.758 121.444 109.705L113.163 91.2231C112.645 90.0682 113.489 88.7637 114.752 88.7637V88.7646Z" fill="#F47458"/>
<path d="M129.132 100.467C129.312 101.37 130.099 101.973 130.888 101.815C131.676 101.657 132.17 100.797 131.99 99.8946C131.81 98.9919 131.024 98.3883 130.235 98.5467C129.446 98.7051 128.952 99.5645 129.133 100.467H129.132Z" fill="white"/>
<path opacity="0.3" d="M204.229 60.3384C211.513 60.3384 217.418 54.4104 217.418 47.0979C217.418 39.7854 211.513 33.8574 204.229 33.8574C196.945 33.8574 191.04 39.7854 191.04 47.0979C191.04 54.4104 196.945 60.3384 204.229 60.3384Z" fill="#9BC1F9"/>
<path d="M194.906 46.8379H190.044V47.2131H194.906V46.8379Z" fill="#184655"/>
<path d="M218.443 46.8379H213.581V47.2131H218.443V46.8379Z" fill="#184655"/>
<path d="M204.395 32.959H204.021V37.8406H204.395V32.959Z" fill="#184655"/>
<path d="M204.395 56.4922H204.021V61.3738H204.395V56.4922Z" fill="#184655"/>
<path d="M204.631 47.0978C204.631 47.3208 204.451 47.5023 204.228 47.5023C204.005 47.5023 203.825 47.3217 203.825 47.0978C203.825 46.8739 204.005 46.6934 204.228 46.6934C204.451 46.6934 204.631 46.8739 204.631 47.0978Z" fill="#184655"/>
<path d="M204.229 47.2788C204.183 47.2788 204.137 47.2611 204.102 47.2257L196.869 39.9651C196.799 39.8943 196.799 39.7802 196.869 39.7094C196.939 39.6386 197.054 39.6386 197.124 39.7094L204.356 46.9699C204.427 47.0407 204.427 47.1549 204.356 47.2257C204.321 47.2611 204.275 47.2788 204.229 47.2788Z" fill="#184655"/>
<path d="M206.554 54.4358C206.524 54.4208 206.5 54.3942 206.489 54.3597L204.151 47.2708C204.128 47.2018 204.165 47.1275 204.234 47.1045C204.303 47.0815 204.377 47.1186 204.4 47.1877L206.737 54.2765C206.76 54.3455 206.723 54.4199 206.654 54.4429C206.62 54.4544 206.584 54.4509 206.554 54.4358Z" fill="#184655"/>
<path d="M225.249 76.9639L226.426 75.0488L225.481 74.6647C225.274 74.5806 225.174 74.3443 225.258 74.1372C225.342 73.9301 225.578 73.8301 225.785 73.9142L226.875 74.3567L227.927 72.6363L226.917 72.2256C226.711 72.1415 226.611 71.9053 226.695 71.6982C226.779 71.4911 227.014 71.3911 227.221 71.4751L228.376 71.9442L229.598 69.9742C229.703 69.8069 229.911 69.7388 230.094 69.8131L230.271 69.8848C230.502 69.9786 230.594 70.2583 230.463 70.4716L229.326 72.3301L231 73.0097L232.223 71.0397C232.327 70.8725 232.536 70.8043 232.718 70.8787L232.911 70.9565C233.142 71.0503 233.234 71.33 233.104 71.5433L231.967 73.4018L232.912 73.7859C233.119 73.87 233.218 74.1063 233.134 74.3133C233.051 74.5204 232.815 74.6204 232.608 74.5364L231.518 74.0939L230.482 75.8205L231.491 76.2311C231.698 76.3152 231.798 76.5515 231.714 76.7586C231.63 76.9657 231.394 77.0657 231.188 76.9816L230.033 76.5126L228.785 78.5445C228.681 78.7127 228.471 78.7817 228.288 78.7074L228.082 78.6233C227.851 78.5295 227.759 78.2489 227.89 78.0357L229.067 76.1205L227.393 75.4408L226.145 77.4719C226.042 77.6401 225.832 77.7091 225.649 77.6347L225.443 77.5507C225.211 77.4569 225.12 77.1763 225.25 76.963L225.249 76.9639ZM229.514 75.4293L230.566 73.7089L228.892 73.0283L227.84 74.7488L229.514 75.4284V75.4293Z" fill="#07345A"/>
<path d="M121.976 24.8577L123.18 22.1363L121.624 19.5999C121.446 19.3114 121.677 18.9441 122.014 18.9787L124.969 19.2849L126.896 17.0193C127.115 16.7609 127.535 16.8671 127.606 17.1989L128.229 20.1097L130.975 21.2451C131.288 21.3744 131.317 21.8071 131.024 21.977L128.453 23.47L128.224 26.4383C128.197 26.7764 127.796 26.9375 127.544 26.7109L125.332 24.7232L122.443 25.4215C122.114 25.5011 121.837 25.1684 121.974 24.8577H121.976Z" fill="#F48C7F"/>
<path d="M209.167 24.8553L210.07 22.8137L208.903 20.9109C208.771 20.6941 208.943 20.4188 209.196 20.4454L211.413 20.6746L212.858 18.9754C213.022 18.7816 213.338 18.8612 213.391 19.1099L213.858 21.2932L215.918 22.1455C216.153 22.2428 216.174 22.5667 215.955 22.6942L214.027 23.8137L213.855 26.0395C213.835 26.2935 213.534 26.4138 213.345 26.2439L211.686 24.7527L209.519 25.2766C209.273 25.3359 209.064 25.0863 209.167 24.8545V24.8553Z" fill="#F7CC7F"/>
<path d="M200.205 83.1828L200.062 81.4916L198.59 80.6509C198.422 80.5553 198.437 80.3084 198.615 80.2331L200.176 79.5747L200.52 77.9127C200.558 77.7233 200.798 77.6613 200.923 77.8074L202.031 79.0915L203.715 78.9048C203.906 78.8835 204.039 79.0915 203.939 79.257L203.063 80.7093L203.76 82.2563C203.839 82.4324 203.683 82.6235 203.495 82.5793L201.845 82.1934L200.593 83.336C200.45 83.466 200.22 83.3758 200.204 83.1828H200.205Z" fill="#F48C7F"/>
<path d="M65.1635 58.3223L65.8252 56.8249L64.9692 55.4301C64.872 55.2708 64.9983 55.0691 65.1838 55.0885L66.8092 55.2567L67.8693 54.0106C67.9903 53.869 68.2209 53.9274 68.2598 54.1097L68.6025 55.7107L70.1131 56.3355C70.2853 56.4063 70.3012 56.6444 70.1396 56.7382L68.7253 57.5594L68.599 59.1923C68.5848 59.3781 68.364 59.4666 68.2253 59.3427L67.0089 58.2489L65.4197 58.633C65.2386 58.6763 65.0867 58.494 65.1617 58.3232L65.1635 58.3223Z" fill="#F7CC7F"/>
<path d="M116.409 55.6114L117.07 54.114L116.214 52.7192C116.117 52.5599 116.243 52.3581 116.429 52.3776L118.054 52.5457L119.114 51.2997C119.235 51.1581 119.466 51.2165 119.505 51.3988L119.848 52.9997L121.358 53.6246C121.53 53.6954 121.546 53.9334 121.386 54.0272L119.971 54.8485L119.845 56.4813C119.831 56.6672 119.61 56.7557 119.471 56.6318L118.255 55.5379L116.666 55.922C116.485 55.9654 116.333 55.7831 116.408 55.6123L116.409 55.6114Z" fill="#50BFA5"/>
<path d="M90.8946 31.3595L93.5183 30.978L94.5969 35.1393L98.5014 35.0561L99.8168 38.0386L101.324 37.3713L99.5641 33.3826L95.8637 33.4622L94.7418 29.1328L90.7939 29.7063L90.8946 31.3595Z" fill="#50BFA5"/>
<path d="M85.2697 101.067L87.2546 99.307L90.4348 102.195L93.6538 99.9796L96.3861 101.751L97.281 100.365L93.6273 97.9963L90.5761 100.095L87.2679 97.0918L84.2803 99.7397L85.2697 101.067Z" fill="#07345A"/>
<path d="M54.0851 103.245L55.7512 100.535L54.4128 99.9913C54.1204 99.8727 53.9791 99.5382 54.0975 99.2453C54.2158 98.9523 54.5498 98.8107 54.8422 98.9293L56.3854 99.5559L57.8748 97.1213L56.4455 96.5407C56.1531 96.4221 56.0118 96.0876 56.1301 95.7946C56.2485 95.5017 56.5824 95.3601 56.8748 95.4787L58.5091 96.1424L60.2387 93.3547C60.3854 93.1175 60.6813 93.0211 60.9393 93.1264L61.1884 93.2281C61.5161 93.3609 61.646 93.7565 61.4613 94.0583L59.8527 96.6894L62.2219 97.6523L63.9516 94.8645C64.0982 94.6273 64.3942 94.5309 64.6521 94.6362L64.9242 94.7468C65.2519 94.8795 65.3818 95.2751 65.1972 95.5769L63.5885 98.208L64.9268 98.7514C65.2192 98.87 65.3606 99.2045 65.2422 99.4975C65.1238 99.7904 64.7899 99.932 64.4975 99.8134L62.9543 99.1868L61.4878 101.63L62.9171 102.211C63.2095 102.329 63.3509 102.664 63.2325 102.957C63.1141 103.25 62.7802 103.391 62.4878 103.273L60.8536 102.609L59.0868 105.485C58.9402 105.723 58.6434 105.82 58.3845 105.715L58.093 105.597C57.7653 105.463 57.6354 105.067 57.8209 104.765L59.487 102.054L57.1178 101.091L55.351 103.967C55.2044 104.205 54.9075 104.302 54.6487 104.198L54.3572 104.079C54.0295 103.945 53.8996 103.549 54.0851 103.247V103.245ZM60.123 101.074L61.6124 98.639L59.2432 97.6762L57.7538 100.111L60.123 101.074Z" fill="#50BFA5"/>
<path d="M205.437 137.544C205.267 136.045 205.066 134.511 204.372 133.173C203.527 131.546 202.043 130.372 200.747 129.079C198.325 126.663 196.461 123.686 195.342 120.447C194.477 117.943 194.045 115.275 192.853 112.91C192.125 111.466 191.132 110.174 190.306 108.785C188.351 105.501 187.287 101.62 184.637 98.8711C184.127 102.204 185.135 105.74 187.323 108.297C187.976 109.06 188.733 109.748 189.23 110.62C190.133 112.204 190.051 114.138 190.157 115.96C190.356 119.385 191.32 122.763 192.956 125.774C194.694 128.973 197.205 131.821 198.134 135.345C198.831 137.985 198.623 140.946 200.109 143.233C200.27 143.481 200.455 143.731 200.494 144.024C200.516 144.188 200.49 144.356 200.464 144.519C200.431 144.732 200.398 144.944 200.365 145.157C200.026 147.317 199.677 150.067 201.531 151.683C202.815 152.804 204.468 152.83 205.39 151.341C206.319 149.842 206.236 147.649 206.168 145.962C206.053 143.153 205.752 140.336 205.437 137.544Z" fill="#3C8F7C"/>
<path d="M208.775 135.806C208.054 133.305 206.935 130.923 206.374 128.38C205.83 125.915 205.826 123.366 205.824 120.84C205.822 118.073 205.82 115.305 205.818 112.538C205.817 110.815 205.814 109.083 205.531 107.384C204.919 103.728 203.023 100.348 202.701 96.655C202.562 95.0585 202.723 93.4442 202.548 91.8512C202.448 90.9405 202.215 90.0122 201.795 89.2042C201.342 88.336 200.092 88.374 199.683 89.2635C198.762 91.2627 198.178 93.4247 198.55 95.5664C198.774 96.8515 199.329 98.0498 199.744 99.2861C201.591 104.791 200.61 110.885 202.039 116.514C202.471 118.214 203.123 119.88 203.199 121.631C203.381 125.825 200.255 129.654 200.542 133.841C200.777 137.274 203.241 140.115 204.274 143.395C204.853 145.232 204.978 147.192 205.598 149.015C206.079 150.431 207.2 152.152 208.94 151.721C210.592 151.313 210.093 149.962 210.02 148.672C209.77 144.306 210.005 140.07 208.775 135.806Z" fill="#327F6B"/>
<path d="M212.557 138.098C212.485 136.799 212.265 135.492 212.447 134.203C212.599 133.115 213.032 132.089 213.341 131.034C213.92 129.058 214.064 126.983 214.204 124.928C214.458 121.193 214.713 117.457 214.968 113.722C215.363 107.915 215.762 102.092 216.846 96.3737C217.147 94.786 217.484 93.0656 216.772 91.6169C216.622 91.3115 216.327 90.9876 216.003 91.0894C215.772 91.162 215.659 91.416 215.576 91.6443C213.206 98.0942 212.311 105.038 209.667 111.379C209.033 112.898 208.296 114.392 207.969 116.006C207.575 117.943 207.791 119.945 207.842 121.921C207.916 124.756 207.64 127.612 206.858 130.338C206.449 131.764 205.902 133.158 205.678 134.624C205.399 136.453 205.633 138.316 205.808 140.157C206.145 143.698 206.258 147.26 206.149 150.815C206.084 152.906 207.846 152.851 209.013 151.567C209.829 150.668 209.821 149.683 210.1 148.565C211.017 144.895 212.78 142.077 212.557 138.098Z" fill="#3C8F7C"/>
<path d="M201.555 143.765C199.997 141.258 196.895 139.833 195.899 137.054C195.646 136.346 195.547 135.585 195.238 134.9C194.551 133.38 192.988 132.521 191.452 131.821C191.239 131.723 190.996 131.878 190.992 132.114C190.987 132.487 191.164 132.844 191.473 133.052C192.657 133.851 193.556 135.07 193.956 136.446C194.43 138.075 194.225 139.861 194.815 141.452C195.309 142.787 196.329 143.88 196.808 145.221C197.245 146.448 197.199 147.788 197.405 149.074C197.611 150.36 198.18 151.725 199.36 152.269C203.626 154.239 202.559 145.385 201.553 143.765H201.555Z" fill="#327F6B"/>
<path d="M219.297 142.937C219.23 144.148 219.415 145.419 218.942 146.536C218.639 147.25 218.094 147.828 217.647 148.462C216.076 150.687 215.507 153.84 213.094 155.092C212.935 155.174 212.758 155.249 212.581 155.216C212.334 155.17 212.172 154.931 212.072 154.699C211.481 153.319 212.145 151.763 212.538 150.313C212.607 150.059 212.664 149.777 212.543 149.543C212.411 149.286 212.108 149.175 211.901 148.974C211.488 148.572 211.527 147.908 211.61 147.337C211.814 145.91 212.102 144.496 212.47 143.104C212.679 142.314 212.92 141.518 213.375 140.839C213.874 140.093 214.601 139.536 215.281 138.95C218.285 136.36 220.586 132.956 221.875 129.198C222.154 128.385 222.403 127.525 222.979 126.888C223.555 126.251 224.581 125.922 225.283 126.417C225.782 126.769 223.738 130.063 223.5 130.459C222.819 131.588 222.81 132.571 222.425 133.824C221.481 136.896 219.478 139.645 219.298 142.937H219.297Z" fill="#3C8F7C"/>
<path d="M216.919 144.338C217.365 143.183 217.815 142.011 217.962 140.78C218.125 139.412 217.909 138.012 218.142 136.653C218.442 134.907 219.458 133.371 219.962 131.672C220.325 130.446 220.414 129.157 220.632 127.896C221.256 124.291 222.949 120.767 222.463 117.141C222.357 116.352 222.002 115.433 221.22 115.298C220.512 115.176 219.868 115.825 219.685 116.521C219.501 117.218 219.638 117.952 219.688 118.671C219.828 120.675 219.258 122.723 218.101 124.363C216.99 125.938 215.377 127.125 214.377 128.774C213.15 130.797 212.983 133.265 212.358 135.549C211.113 140.09 207.99 144.05 207.421 148.725C207.195 150.585 207.631 152.846 209.345 153.588C214.3 155.738 215.797 147.247 216.92 144.338L216.919 144.338Z" fill="#327F6B"/>
<path d="M208.254 150.102H196.88C196.103 150.102 195.529 150.831 195.709 151.59L199.855 169.106C199.984 169.651 200.469 170.035 201.026 170.035H214.689C215.246 170.035 215.731 169.65 215.86 169.106L220.006 151.59C220.186 150.831 219.612 150.102 218.834 150.102H208.253H208.254Z" fill="#F47458"/>
<path d="M94.1409 129.602H38.8545V132.462H94.1409V129.602Z" fill="#184655"/>
<path d="M76.0007 146.195H39.8545V148.698H76.0007V146.195Z" fill="#184655"/>
<path d="M88.7159 131.031H86.3838V170.047H88.7159V131.031Z" fill="#184655"/>
<path d="M55.7345 131.031H53.4023V170.047H55.7345V131.031Z" fill="#184655"/>
<path d="M69.796 170.047L82.3594 131.366L80.3003 130.695L67.5195 170.047H69.796Z" fill="#184655"/>
<path d="M34.4573 170.047L45.2027 131.282L43.1162 130.701L32.21 170.047H34.4573Z" fill="#184655"/>
<path d="M204.229 31.6348C195.722 31.6348 188.825 38.5581 188.825 47.0984C188.825 55.6386 195.722 62.562 204.229 62.562C212.736 62.562 219.632 55.6386 219.632 47.0984C219.632 38.5581 212.736 31.6348 204.229 31.6348ZM205.055 60.3132C197.785 60.7707 191.522 55.2262 191.065 47.9276C190.61 40.629 196.133 34.342 203.403 33.8835C210.672 33.4251 216.935 38.9705 217.392 46.2691C217.849 53.5677 212.325 59.8548 205.055 60.3132Z" fill="#184655"/>
<path d="M271.527 169.809H17.5879V171.534H271.527V169.809Z" fill="#042A44"/>
<path d="M145.483 59.4969L149.59 59.4297C149.59 59.4297 149.521 60.9935 147.716 61.0758C145.514 61.1758 145.483 59.4969 145.483 59.4969Z" fill="white"/>
</svg>
