<svg width="20" height="21" viewBox="0 0 20 21" fill="none" xmlns="http://www.w3.org/2000/svg">
<path d="M1 10.24V12.6843C1 15.8973 1 17.5038 1.99816 18.502C2.99631 19.5002 4.60283 19.5002 7.81585 19.5002H11.7106C14.9236 19.5002 16.5301 19.5002 17.5283 18.502C18.5265 17.5038 18.5265 15.8973 18.5265 12.6843V10.24C18.5265 8.60288 18.5265 7.78443 18.1799 7.07589C17.8334 6.36735 17.1873 5.86484 15.8952 4.85982L13.9478 3.34519C11.9376 1.78173 10.9325 1 9.76324 1C8.59393 1 7.58887 1.78173 5.57871 3.34519L3.63132 4.85982C2.33915 5.86484 1.69306 6.36735 1.34654 7.07589C1 7.78443 1 8.60288 1 10.24Z" fill="white" stroke="white" stroke-width="1.46054" stroke-linecap="round" stroke-linejoin="round"/>
<path d="M13.3334 14.1665H6.66675" stroke="#242424" stroke-width="1.25" stroke-linecap="round" stroke-linejoin="round"/>
</svg>
