<svg width="20" height="20" viewBox="0 0 20 20" fill="none" xmlns="http://www.w3.org/2000/svg">
<g clip-path="url(#clip0_2067_16386)">
<path d="M20 10.0011V9.99614C20 7.03697 18.7117 4.37947 16.6658 2.55197L16.6558 2.54364C16.6306 2.51642 16.6023 2.4921 16.5717 2.47114L16.57 2.4703C14.7529 0.875112 12.4163 -0.00251174 9.99834 0.00197021C7.47167 0.00197021 5.165 0.940303 3.40667 2.48864L3.4175 2.47947C3.39637 2.49562 3.37684 2.51376 3.35917 2.53364C2.30215 3.46966 1.45607 4.62042 0.876957 5.90808C0.297848 7.19574 -0.00106949 8.59175 2.87511e-06 10.0036C2.87511e-06 12.962 1.28667 15.6195 3.33084 17.4478L3.34084 17.4561C3.36743 17.486 3.39703 17.5131 3.42917 17.537L3.43084 17.5378C5.24737 19.1308 7.58224 20.0072 9.99834 20.0028C12.4257 20.0065 14.7706 19.122 16.5908 17.5161L16.58 17.5253C17.6554 16.5903 18.5174 15.4353 19.1077 14.1384C19.698 12.8414 20.0029 11.4328 20.0017 10.0078V10.002L20 10.0011ZM16.2817 16.5053C15.7861 16.1049 15.2534 15.7527 14.6908 15.4536L14.6367 15.427C15.1475 13.9545 15.455 12.257 15.4842 10.4911V10.4778H19.035C18.9156 12.7624 17.9322 14.9162 16.2842 16.5028L16.2817 16.5053ZM10.4767 15.2511C11.5458 15.3086 12.545 15.5436 13.4667 15.9261L13.4067 15.9045C12.6683 17.5878 11.6292 18.7445 10.4767 18.9986V15.2511ZM10.4767 14.2978V10.4778H14.5333C14.5011 12.0597 14.2268 13.6273 13.72 15.1261L13.7525 15.017C12.7181 14.5911 11.6176 14.3481 10.5 14.2986L10.4775 14.2978H10.4767ZM10.4767 9.52447V5.70447C11.6243 5.65226 12.7542 5.40102 13.8158 4.96197L13.75 4.98614C14.2125 6.3353 14.4967 7.8903 14.5333 9.50697V9.52447H10.4767ZM10.4767 4.75114V1.0053C11.6292 1.25947 12.6683 2.41114 13.4067 4.09947C12.545 4.4578 11.5458 4.69197 10.5008 4.7503L10.4767 4.75114ZM12.855 1.4178C13.8372 1.74471 14.7557 2.23862 15.57 2.8778L15.5508 2.8628C15.1817 3.1528 14.7675 3.42614 14.3308 3.66364L14.2842 3.68697C13.9322 2.85376 13.447 2.08341 12.8475 1.40614L12.855 1.4153V1.4178ZM9.52167 1.0078V4.75114C8.49374 4.69876 7.48241 4.47045 6.53167 4.07614L6.59167 4.0978C7.33334 2.41447 8.37084 1.25864 9.52334 1.00447L9.52167 1.0078ZM5.715 3.68447C5.26339 3.44124 4.83299 3.16053 4.42834 2.8453L4.44834 2.8603C5.23889 2.23984 6.12865 1.75749 7.08 1.43364L7.14334 1.41447C6.56012 2.07383 6.08507 2.82143 5.73584 3.62947L5.715 3.68447ZM9.52334 5.70364V9.52364H5.46667C5.50334 7.88947 5.7875 6.33447 6.2825 4.87614L6.25 4.9853C7.28447 5.40907 8.38411 5.65177 9.50084 5.7028L9.52334 5.70364ZM9.52334 10.477V14.297C8.37567 14.3492 7.24581 14.6004 6.18417 15.0395L6.25 15.0153C5.7875 13.667 5.50334 12.1111 5.46667 10.4945V10.477H9.52334ZM9.52334 15.2503V18.9961C8.37084 18.742 7.33167 17.5903 6.59334 15.902C7.455 15.5436 8.45417 15.3103 9.49917 15.252L9.52334 15.2503ZM7.14834 18.5836C6.16699 18.2562 5.24878 17.7636 4.43334 17.127L4.45334 17.142C4.8225 16.852 5.23667 16.5786 5.67334 16.3411L5.72 16.3178C6.06932 17.1512 6.55452 17.9208 7.15584 18.5953L7.14834 18.587V18.5836ZM14.285 16.317C14.7683 16.5795 15.1825 16.852 15.5717 17.1561L15.5517 17.1411C14.7611 17.7616 13.8714 18.2439 12.92 18.5678L12.8567 18.587C13.4398 17.9279 13.9149 17.1805 14.2642 16.3728L14.285 16.3186V16.317ZM19.035 9.52447H15.4842C15.4581 7.80031 15.1606 6.09102 14.6025 4.45947L14.6367 4.57447C15.2253 4.26445 15.7826 3.8983 16.3008 3.48114L16.2808 3.49614C17.9261 5.07636 18.9099 7.2224 19.0333 9.5003L19.035 9.52447ZM3.71834 3.49697C4.19834 3.88697 4.7375 4.24447 5.30917 4.54864L5.36334 4.5753C4.8525 6.0478 4.545 7.7453 4.51584 9.51114V9.52447H0.96417C1.08358 7.23989 2.06693 5.08611 3.715 3.49947L3.71834 3.49697ZM0.965003 10.4778H4.51584C4.54189 12.202 4.83943 13.9112 5.3975 15.5428L5.36334 15.4278C4.7375 15.7603 4.19917 16.1178 3.69917 16.5211L3.71917 16.5061C2.07389 14.9259 1.09007 12.7799 0.966669 10.502L0.965836 10.4786L0.965003 10.4778Z" fill="#959595"/>
</g>
<defs>
<clipPath id="clip0_2067_16386">
<rect width="20" height="20" fill="white"/>
</clipPath>
</defs>
</svg>
