<svg width="30" height="30" viewBox="0 0 30 30" fill="none" xmlns="http://www.w3.org/2000/svg">
<path d="M28.1085 12.2204C28.1085 11.5722 27.851 10.9505 27.3926 10.4921C26.9342 10.0338 26.3126 9.77626 25.6643 9.77626H17.9408L19.114 4.19134C19.1384 4.06913 19.1506 3.9347 19.1506 3.80028C19.1506 3.29922 18.9429 2.83483 18.6129 2.50487L17.3175 1.22168L9.27619 9.26299C8.82401 9.71516 8.55516 10.3262 8.55516 10.9983V23.2192C8.55516 23.8674 8.81267 24.4891 9.27104 24.9475C9.72941 25.4058 10.3511 25.6633 10.9993 25.6633H21.9981C23.0124 25.6633 23.8801 25.0523 24.2467 24.1724L27.9374 15.5567C28.0474 15.2756 28.1085 14.9823 28.1085 14.6646V12.2204ZM1.22266 25.6633H6.11099V10.9983H1.22266V25.6633Z" fill="white"/>
</svg>
