<svg width="20" height="20" viewBox="0 0 20 20" fill="none" xmlns="http://www.w3.org/2000/svg">
<g clip-path="url(#clip0_1855_14649)">
<path d="M13.1643 7.84478L12.1018 7.66806C12.0762 7.82236 12.0844 7.9804 12.126 8.1312C12.1676 8.28199 12.2415 8.42192 12.3426 8.54128C12.4437 8.66063 12.5695 8.75655 12.7114 8.82235C12.8534 8.88816 13.0079 8.92229 13.1643 8.92236V7.84478ZM1.31097 7.84478V6.76721C1.02518 6.76721 0.751097 6.88074 0.549013 7.08282C0.346928 7.28491 0.233398 7.55899 0.233398 7.84478H1.31097ZM3.46612 19.6981H15.7074V17.543H3.46612V19.6981ZM17.0005 6.76721H13.1643V8.92236H17.0005V6.76721ZM14.2279 8.02151L15.0953 2.81143L12.9703 2.45691L12.1018 7.66806L14.2279 8.02151ZM12.9703 0.301758H12.7397V2.45691H12.9703V0.301758ZM9.15249 2.22092L6.44346 6.28769L8.23655 7.4838L10.9477 3.41703L9.15249 2.22092ZM5.54584 6.76721H1.31097V8.92236H5.54584V6.76721ZM0.233398 7.84478V16.4654H2.38855V7.84478H0.233398ZM18.8776 17.099L20.1707 10.6335L18.0586 10.2111L16.7656 16.6766L18.8776 17.099ZM6.44346 6.28769C6.34503 6.43523 6.21062 6.55619 6.05423 6.63983C5.89783 6.72348 5.72321 6.76724 5.54584 6.76721V8.92236C6.07802 8.92232 6.60196 8.7909 7.07116 8.53976C7.54035 8.28862 7.94029 7.92553 8.23547 7.48272L6.44346 6.28769ZM15.0953 2.81143C15.1468 2.50275 15.1304 2.18655 15.0474 1.88483C14.9643 1.58311 14.8165 1.3031 14.6143 1.06427C14.4121 0.825433 14.1602 0.633506 13.8764 0.501827C13.5925 0.370147 13.2833 0.301876 12.9703 0.301758V2.45691L15.0953 2.81143ZM17.0005 8.92236C17.1599 8.9223 17.3174 8.95762 17.4616 9.02579C17.6057 9.09395 17.7329 9.19326 17.8341 9.31655C17.9352 9.43984 18.0077 9.58403 18.0463 9.73873C18.085 9.89343 18.0899 10.0548 18.0586 10.2111L20.1707 10.6335C20.2644 10.1646 20.253 9.68078 20.1371 9.21684C20.0213 8.7529 19.804 8.32043 19.5008 7.95061C19.1977 7.58079 18.8163 7.28282 18.3841 7.07819C17.9519 6.87355 17.4797 6.76734 17.0015 6.76721L17.0005 8.92236ZM15.7074 19.6981C16.4548 19.6982 17.1792 19.4392 17.7572 18.9653C18.3352 18.4915 18.7311 17.8319 18.8776 17.099L16.7656 16.6766C16.7167 16.9211 16.5845 17.1412 16.3915 17.2992C16.1986 17.4571 15.9568 17.5433 15.7074 17.543V19.6981ZM12.7397 0.301758C12.0302 0.30177 11.3316 0.476944 10.706 0.811733C10.0805 1.14652 9.54611 1.63057 9.15249 2.22092L10.9477 3.41703C11.1445 3.12175 11.41 2.87962 11.7228 2.71213C12.0356 2.54464 12.3849 2.45697 12.7397 2.45691V0.301758ZM3.46612 17.543C3.18033 17.543 2.90625 17.4294 2.70416 17.2273C2.50208 17.0253 2.38855 16.7512 2.38855 16.4654H0.233398C0.233398 17.3228 0.573988 18.145 1.18024 18.7513C1.7865 19.3575 2.60875 19.6981 3.46612 19.6981V17.543Z" fill="white"/>
<path d="M5.62134 7.84473V18.6205" stroke="white" stroke-width="2.15515"/>
</g>
<defs>
<clipPath id="clip0_1855_14649">
<rect width="20" height="20" fill="white"/>
</clipPath>
</defs>
</svg>
