<svg width="18" height="18" viewBox="0 0 18 18" fill="none" xmlns="http://www.w3.org/2000/svg">
<path d="M12 7.5C12 5.8425 10.6575 4.5 9 4.5C7.3425 4.5 6 5.8425 6 7.5C6 9.1575 7.3425 10.5 9 10.5C10.6575 10.5 12 9.1575 12 7.5ZM7.5 7.5C7.5 6.675 8.175 6 9 6C9.825 6 10.5 6.675 10.5 7.5C10.5 8.325 9.825 9 9 9C8.175 9 7.5 8.325 7.5 7.5Z" fill="#A0A0A0"/>
<path d="M8.56507 16.3577C8.69257 16.4477 8.85007 16.5002 9.00007 16.5002C9.15007 16.5002 9.30757 16.4552 9.43507 16.3577C9.66007 16.1927 15.0226 12.3302 15.0001 7.49268C15.0001 4.18518 12.3076 1.49268 9.00007 1.49268C5.69257 1.49268 3.00007 4.18518 3.00007 7.49268C2.97757 12.3227 8.34007 16.1927 8.56507 16.3577ZM9.00007 3.00018C11.4826 3.00018 13.5001 5.01768 13.5001 7.50018C13.5151 10.8302 10.2076 13.8227 9.00007 14.8052C7.79257 13.8227 4.48507 10.8377 4.50007 7.50018C4.50007 5.01768 6.51757 3.00018 9.00007 3.00018Z" fill="#A0A0A0"/>
</svg>
