<svg width="91" height="80" viewBox="0 0 91 80" fill="none" xmlns="http://www.w3.org/2000/svg">
<path d="M90.2634 9.11317C90.2634 10.1784 90.4129 10.204 89.1178 10.204H66.9478C63.9015 10.2076 60.8589 10.2076 57.8127 10.2186C57.4442 10.2186 57.0685 10.1566 56.6417 10.3317C57.2691 12.1521 58.1848 13.7719 59.4106 15.2202C62.0592 18.3431 65.4995 20.1343 69.3994 21.1303C73.1023 22.0752 76.8453 22.1299 80.592 21.4295C81.2815 21.2981 81.6974 21.4367 82.1097 22.0496C83.9958 24.8223 85.9476 27.5511 87.8629 30.2982C88.3481 30.9877 88.3371 31.0023 87.8702 31.6006C84.1125 36.3907 81.7338 41.8374 80.2271 47.7C78.1513 55.8136 78.498 63.8943 80.5264 71.9568C80.8328 73.1826 81.1684 74.4048 81.577 75.605C81.8069 76.2726 81.7704 76.331 81.0809 76.5426C77.9471 77.5167 74.817 78.4834 71.6796 79.4393C70.9754 79.6545 70.9681 79.6363 70.7529 78.9541C68.2794 71.1105 67.1995 63.0735 67.7394 54.8651C68.2246 47.5541 70.118 40.5861 73.3175 33.9829C73.4744 33.6545 73.7262 33.3481 73.7153 32.8994C72.1283 32.7096 70.534 32.571 68.9616 32.2536C62.1212 30.8783 56.1966 27.8503 51.5561 22.5421C49.8305 20.5758 48.4296 18.3942 47.3534 16.0046C47.2293 15.7346 47.182 15.4063 46.8172 15.1947C44.9676 16.5774 43.2748 18.1607 41.7425 19.9155C39.8163 22.1299 38.2329 24.545 37.434 27.4088C36.9597 29.1089 36.7445 30.8126 37.0911 32.5783C37.8317 36.3505 40.8085 38.1746 44.4968 37.0546C46.7441 36.3688 48.3421 34.8986 49.4475 32.8519C50.0969 31.6407 49.8561 31.6517 51.1731 32.25C53.7816 33.4429 56.39 34.6432 59.0094 35.8179C59.48 36.0295 59.7718 36.3177 59.9761 36.7956C61.4755 40.2614 62.621 43.8147 63.0661 47.5979C64.4925 59.7573 56.6635 68.575 48.1231 71.4388C42.8515 73.2082 37.5689 73.1242 32.2535 71.7635C26.1209 70.1984 20.9771 66.9406 16.5846 62.446C11.6268 57.3568 8.20475 51.3373 5.90639 44.6429C4.02393 39.1633 3.11193 33.5159 2.85656 27.7445C2.81278 26.6938 2.81629 26.6938 3.81225 26.4713C7.01535 25.7708 10.2186 25.063 13.4217 24.3589C13.6223 24.3152 13.8192 24.2349 14.0345 24.3152C14.2023 24.7019 14.1184 25.1178 14.1184 25.5191C14.1439 31.2139 14.9539 36.7737 17.0041 42.1074C19.2259 47.8861 22.4765 52.979 27.3541 56.8935C30.3638 59.3122 33.7638 60.9539 37.62 61.5011C39.8052 61.8076 41.9796 61.7346 44.1138 61.0305C49.0717 59.3925 52.0122 55.3466 51.9793 50.1151C51.9757 48.8127 51.8078 47.5249 51.4649 46.2663C51.4029 46.0365 51.3737 45.7957 51.1366 45.606C50.6186 45.9015 50.0895 46.2079 49.5569 46.5071C46.901 47.9846 44.0554 48.7909 41.0018 48.6084C33.8477 48.1853 28.1894 43.5922 26.2413 36.6679C25.0046 32.2719 25.3037 27.9305 26.7593 23.6475C28.2733 19.2041 30.7942 15.3662 33.9645 11.9369C34.4278 11.4371 34.9022 10.9409 35.402 10.4119C35.0773 10.0945 34.6833 10.2186 34.3403 10.2186C26.504 10.2113 18.6677 10.2113 10.835 10.2113H1.18566C0.94488 10.2113 0.707755 10.2076 0.463327 10.204C0.178768 10.2003 0.0218109 10.0544 0.0108664 9.76984C0.00721816 9.5619 0.00356285 9.35761 0.00356285 9.15331C-8.53327e-05 6.44635 1.71427e-07 3.74669 1.71427e-07 1.04339C1.71427e-07 0.00365401 -0.000106724 0 1.07611 0H89.2528C90.2524 0.00364819 90.2561 0.00365175 90.2561 1.0069C90.2597 3.71021 90.2597 6.41352 90.2561 9.11683L90.2634 9.11317Z" fill="white"/>
</svg>
