<svg width="16" height="16" viewBox="0 0 16 16" fill="none" xmlns="http://www.w3.org/2000/svg">
<g clip-path="url(#clip0_759_52938)">
<path d="M1.59787 13.5359H3.99907V15.1367C3.99907 15.4248 4.15115 15.689 4.40728 15.833C4.52965 15.9021 4.66805 15.9377 4.80855 15.9363C4.94905 15.9349 5.0867 15.8965 5.20768 15.825L9.01758 13.5359H14.3963C15.2767 13.5359 15.9971 12.8155 15.9971 11.9351V2.33029C15.9971 1.44985 15.2767 0.729492 14.3963 0.729492H1.59787C0.71743 0.729492 -0.00292969 1.44985 -0.00292969 2.33029V11.9351C-0.00292969 12.8155 0.71743 13.5359 1.59787 13.5359ZM1.59787 2.33029H14.4043V11.9351H8.80147C8.6574 11.9351 8.51333 11.9751 8.39327 12.0472L5.59987 13.72V12.7355C5.59987 12.2953 5.23969 11.9351 4.79947 11.9351H1.59787V2.33029Z" fill="white"/>
<path d="M5.33366 6.66675C5.15685 6.66675 4.98728 6.73699 4.86225 6.86201C4.73723 6.98703 4.66699 7.1566 4.66699 7.33341C4.66699 7.51023 4.73723 7.67979 4.86225 7.80482C4.98728 7.92984 5.15685 8.00008 5.33366 8.00008C5.51047 8.00008 5.68004 7.92984 5.80506 7.80482C5.93009 7.67979 6.00033 7.51023 6.00033 7.33341C6.00033 7.1566 5.93009 6.98703 5.80506 6.86201C5.68004 6.73699 5.51047 6.66675 5.33366 6.66675ZM8.00033 6.66675C7.82351 6.66675 7.65395 6.73699 7.52892 6.86201C7.4039 6.98703 7.33366 7.1566 7.33366 7.33341C7.33366 7.51023 7.4039 7.67979 7.52892 7.80482C7.65395 7.92984 7.82351 8.00008 8.00033 8.00008C8.17714 8.00008 8.34671 7.92984 8.47173 7.80482C8.59675 7.67979 8.66699 7.51023 8.66699 7.33341C8.66699 7.1566 8.59675 6.98703 8.47173 6.86201C8.34671 6.73699 8.17714 6.66675 8.00033 6.66675ZM10.667 6.66675C10.4902 6.66675 10.3206 6.73699 10.1956 6.86201C10.0706 6.98703 10.0003 7.1566 10.0003 7.33341C10.0003 7.51023 10.0706 7.67979 10.1956 7.80482C10.3206 7.92984 10.4902 8.00008 10.667 8.00008C10.8438 8.00008 11.0134 7.92984 11.1384 7.80482C11.2634 7.67979 11.3337 7.51023 11.3337 7.33341C11.3337 7.1566 11.2634 6.98703 11.1384 6.86201C11.0134 6.73699 10.8438 6.66675 10.667 6.66675Z" fill="white"/>
</g>
<defs>
<clipPath id="clip0_759_52938">
<rect width="16" height="16" fill="white"/>
</clipPath>
</defs>
</svg>
