<svg width="16" height="16" viewBox="0 0 16 16" fill="none" xmlns="http://www.w3.org/2000/svg">
<g clip-path="url(#clip0_759_52949)">
<path fill-rule="evenodd" clip-rule="evenodd" d="M7.99978 0.604736C12.0508 0.604736 15.3345 3.8885 15.3345 7.93948C15.3345 11.9905 12.0508 15.2742 7.99978 15.2742C6.75139 15.276 5.52337 14.9578 4.4329 14.35L4.20919 14.2195L1.9853 14.8737C1.86428 14.9094 1.73615 14.9136 1.61307 14.8858C1.48999 14.8581 1.37603 14.7994 1.282 14.7153C1.18796 14.6312 1.11697 14.5244 1.07575 14.4052C1.03453 14.2859 1.02444 14.1581 1.04645 14.0339L1.06552 13.954L1.71978 11.7301C1.02815 10.5868 0.663343 9.27569 0.665045 7.93948C0.665045 3.8885 3.94881 0.604736 7.99978 0.604736ZM6.38101 6.3207L4.18059 8.52112C4.11053 8.58878 4.05465 8.66972 4.01621 8.7592C3.97777 8.84869 3.95754 8.94494 3.95669 9.04233C3.95585 9.13972 3.9744 9.2363 4.01128 9.32644C4.04816 9.41658 4.10263 9.49848 4.17149 9.56734C4.24036 9.63621 4.32226 9.69067 4.4124 9.72755C4.50254 9.76443 4.59912 9.78299 4.69651 9.78215C4.7939 9.7813 4.89015 9.76107 4.97964 9.72263C5.06912 9.68419 5.15006 9.62831 5.21772 9.55825L6.89957 7.8764L8.58143 9.55825C8.71898 9.69576 8.9055 9.773 9.1 9.773C9.29449 9.773 9.48101 9.69576 9.61856 9.55825L11.819 7.35783C11.9526 7.2195 12.0265 7.03422 12.0249 6.8419C12.0232 6.64959 11.946 6.46563 11.81 6.32963C11.6741 6.19364 11.4901 6.1165 11.2978 6.11483C11.1055 6.11316 10.9202 6.18709 10.7819 6.3207L9.1 8.00255L7.41814 6.3207C7.28059 6.18319 7.09406 6.10595 6.89957 6.10595C6.70508 6.10595 6.51855 6.18319 6.38101 6.3207Z" fill="white"/>
</g>
<defs>
<clipPath id="clip0_759_52949">
<rect width="16" height="16" fill="white"/>
</clipPath>
</defs>
</svg>
