<svg width="20" height="20" viewBox="0 0 20 20" fill="none" xmlns="http://www.w3.org/2000/svg">
<g clip-path="url(#clip0_759_28801)">
<path d="M16.1102 6.94461C16.9206 6.94461 17.6978 6.62268 18.2708 6.04966C18.8439 5.47663 19.1658 4.69944 19.1658 3.88905C19.1658 3.07867 18.8439 2.30148 18.2708 1.72845C17.6978 1.15542 16.9206 0.833496 16.1102 0.833496C15.2999 0.833496 14.5227 1.15542 13.9496 1.72845C13.3766 2.30148 13.0547 3.07867 13.0547 3.88905C13.0547 4.69944 13.3766 5.47663 13.9496 6.04966C14.5227 6.62268 15.2999 6.94461 16.1102 6.94461Z" stroke="#ECC434" stroke-width="0.977778" stroke-linecap="round" stroke-linejoin="round"/>
<path d="M8.98152 19.1662H1.85156L7.06654 9.51067C7.15376 9.34889 7.28314 9.21373 7.44095 9.11953C7.59876 9.02533 7.77913 8.97559 7.96292 8.97559C8.14671 8.97559 8.32707 9.02533 8.48489 9.11953C8.6427 9.21373 8.77208 9.34889 8.8593 9.51067L11.3952 14.2162L8.98152 19.1662ZM8.98152 19.1662H16.5182C16.6913 19.1666 16.8617 19.1229 17.0132 19.0391C17.1647 18.9554 17.2923 18.8344 17.3841 18.6876C17.4758 18.5408 17.5287 18.373 17.5375 18.2002C17.5464 18.0273 17.5111 17.855 17.4349 17.6996L13.5649 9.76489L8.98152 19.1662Z" stroke="#ECC434" stroke-width="0.977778" stroke-linecap="round" stroke-linejoin="round"/>
<path d="M0.833008 19.1665H19.1663" stroke="#ECC434" stroke-width="0.977778" stroke-linecap="round" stroke-linejoin="round"/>
</g>
<defs>
<clipPath id="clip0_759_28801">
<rect width="20" height="20" fill="white"/>
</clipPath>
</defs>
</svg>
