<svg width="20" height="20" viewBox="0 0 20 20" fill="none" xmlns="http://www.w3.org/2000/svg">
<g clip-path="url(#clip0_2742_2236)">
<path d="M10.0001 0.755859C8.29793 0.755859 6.66551 1.43203 5.46192 2.63562C4.25834 3.83921 3.58217 5.47162 3.58217 7.17376V10.4084C3.5823 10.5506 3.54934 10.6909 3.4859 10.8182L1.91168 13.9657C1.83478 14.1195 1.79847 14.2904 1.80619 14.4621C1.81392 14.6339 1.86543 14.8008 1.95582 14.9471C2.04621 15.0933 2.1725 15.214 2.32267 15.2977C2.47284 15.3814 2.64192 15.4254 2.81385 15.4253H17.1863C17.3582 15.4254 17.5273 15.3814 17.6775 15.2977C17.8276 15.214 17.9539 15.0933 18.0443 14.9471C18.1347 14.8008 18.1862 14.6339 18.1939 14.4621C18.2017 14.2904 18.1653 14.1195 18.0884 13.9657L16.5151 10.8182C16.4514 10.691 16.4181 10.5507 16.418 10.4084V7.17376C16.418 5.47162 15.7418 3.83921 14.5382 2.63562C13.3346 1.43203 11.7022 0.755859 10.0001 0.755859ZM10.0001 18.1759C9.43102 18.1762 8.8759 18 8.41119 17.6716C7.94649 17.3431 7.59508 16.8787 7.4054 16.3422H12.5947C12.405 16.8787 12.0536 17.3431 11.5889 17.6716C11.1242 18 10.5691 18.1762 10.0001 18.1759Z" fill="white"/>
</g>
<defs>
<clipPath id="clip0_2742_2236">
<rect width="20" height="20" fill="white"/>
</clipPath>
</defs>
</svg>
