<svg width="20" height="20" viewBox="0 0 20 20" fill="none" xmlns="http://www.w3.org/2000/svg">
<g clip-path="url(#clip0_2742_5627)">
<path d="M9.99957 0.755859C8.29744 0.755859 6.66503 1.43203 5.46144 2.63562C4.25785 3.83921 3.58168 5.47162 3.58168 7.17376V10.4084C3.58181 10.5506 3.54885 10.6909 3.48541 10.8182L1.91119 13.9657C1.83429 14.1195 1.79798 14.2904 1.80571 14.4621C1.81343 14.6339 1.86494 14.8008 1.95533 14.9471C2.04573 15.0933 2.17201 15.214 2.32218 15.2977C2.47235 15.3814 2.64144 15.4254 2.81336 15.4253H17.1858C17.3577 15.4254 17.5268 15.3814 17.677 15.2977C17.8271 15.214 17.9534 15.0933 18.0438 14.9471C18.1342 14.8008 18.1857 14.6339 18.1934 14.4621C18.2012 14.2904 18.1649 14.1195 18.088 13.9657L16.5147 10.8182C16.4509 10.691 16.4176 10.5507 16.4175 10.4084V7.17376C16.4175 5.47162 15.7413 3.83921 14.5377 2.63562C13.3341 1.43203 11.7017 0.755859 9.99957 0.755859ZM9.99957 18.1759C9.43053 18.1762 8.87541 18 8.4107 17.6716C7.946 17.3431 7.59459 16.8787 7.40491 16.3422H12.5942C12.4046 16.8787 12.0532 17.3431 11.5884 17.6716C11.1237 18 10.5686 18.1762 9.99957 18.1759Z" fill="#242424"/>
</g>
<defs>
<clipPath id="clip0_2742_5627">
<rect width="20" height="20" fill="white"/>
</clipPath>
</defs>
</svg>
