<svg width="20" height="20" viewBox="0 0 20 20" fill="none" xmlns="http://www.w3.org/2000/svg">
<g clip-path="url(#clip0_2742_3042)">
<path fill-rule="evenodd" clip-rule="evenodd" d="M3.58217 7.17376C3.58217 5.47162 4.25834 3.83921 5.46192 2.63562C6.66551 1.43203 8.29793 0.755859 10.0001 0.755859C11.7022 0.755859 13.3346 1.43203 14.5382 2.63562C15.7418 3.83921 16.418 5.47162 16.418 7.17376V10.6248L18.0884 13.9657C18.1653 14.1195 18.2017 14.2904 18.1939 14.4621C18.1862 14.6339 18.1347 14.8008 18.0443 14.9471C17.9539 15.0933 17.8276 15.214 17.6775 15.2977C17.5273 15.3814 17.3582 15.4254 17.1863 15.4253H13.5519C13.348 16.2122 12.8885 16.9091 12.2457 17.4066C11.6028 17.9041 10.8129 18.174 10.0001 18.174C9.18719 18.174 8.39733 17.9041 7.75448 17.4066C7.11162 16.9091 6.65216 16.2122 6.44822 15.4253H2.81385C2.64192 15.4254 2.47284 15.3814 2.32267 15.2977C2.1725 15.214 2.04621 15.0933 1.95582 14.9471C1.86543 14.8008 1.81392 14.6339 1.80619 14.4621C1.79847 14.2904 1.83478 14.1195 1.91168 13.9657L3.58217 10.6248V7.17376ZM8.41209 15.4253C8.57304 15.7041 8.80451 15.9355 9.08326 16.0965C9.36201 16.2574 9.6782 16.3421 10.0001 16.3421C10.3219 16.3421 10.6381 16.2574 10.9169 16.0965C11.1956 15.9355 11.4271 15.7041 11.588 15.4253H8.41209ZM10.0001 2.58954C8.78425 2.58954 7.61824 3.07252 6.75854 3.93223C5.89883 4.79194 5.41585 5.95795 5.41585 7.17376V10.6248C5.41583 10.9093 5.3496 11.1899 5.2224 11.4444L4.14969 13.5917H15.8514L14.7786 11.4444C14.6511 11.19 14.5846 10.9094 14.5843 10.6248V7.17376C14.5843 5.95795 14.1013 4.79194 13.2416 3.93223C12.3819 3.07252 11.2159 2.58954 10.0001 2.58954Z" fill="white" fill-opacity="0.75"/>
</g>
<defs>
<clipPath id="clip0_2742_3042">
<rect width="20" height="20" fill="white"/>
</clipPath>
</defs>
</svg>
