<svg width="20" height="20" viewBox="0 0 20 20" fill="none" xmlns="http://www.w3.org/2000/svg">
<g clip-path="url(#clip0_2742_604)">
<path fill-rule="evenodd" clip-rule="evenodd" d="M3.58168 7.17376C3.58168 5.47162 4.25785 3.83921 5.46144 2.63562C6.66503 1.43203 8.29744 0.755859 9.99957 0.755859C11.7017 0.755859 13.3341 1.43203 14.5377 2.63562C15.7413 3.83921 16.4175 5.47162 16.4175 7.17376V10.6248L18.088 13.9657C18.1649 14.1195 18.2012 14.2904 18.1934 14.4621C18.1857 14.6339 18.1342 14.8008 18.0438 14.9471C17.9534 15.0933 17.8271 15.214 17.677 15.2977C17.5268 15.3814 17.3577 15.4254 17.1858 15.4253H13.5514C13.3475 16.2122 12.888 16.9091 12.2452 17.4066C11.6023 17.9041 10.8124 18.174 9.99957 18.174C9.1867 18.174 8.39685 17.9041 7.75399 17.4066C7.11113 16.9091 6.65167 16.2122 6.44773 15.4253H2.81336C2.64144 15.4254 2.47235 15.3814 2.32218 15.2977C2.17201 15.214 2.04573 15.0933 1.95533 14.9471C1.86494 14.8008 1.81343 14.6339 1.80571 14.4621C1.79798 14.2904 1.83429 14.1195 1.91119 13.9657L3.58168 10.6248V7.17376ZM8.4116 15.4253C8.57255 15.7041 8.80403 15.9355 9.08277 16.0965C9.36152 16.2574 9.67771 16.3421 9.99957 16.3421C10.3214 16.3421 10.6376 16.2574 10.9164 16.0965C11.1951 15.9355 11.4266 15.7041 11.5875 15.4253H8.4116ZM9.99957 2.58954C8.78377 2.58954 7.61775 3.07252 6.75805 3.93223C5.89834 4.79194 5.41536 5.95795 5.41536 7.17376V10.6248C5.41534 10.9093 5.34911 11.1899 5.22191 11.4444L4.1492 13.5917H15.8509L14.7782 11.4444C14.6506 11.19 14.5841 10.9094 14.5838 10.6248V7.17376C14.5838 5.95795 14.1008 4.79194 13.2411 3.93223C12.3814 3.07252 11.2154 2.58954 9.99957 2.58954Z" fill="#242424" fill-opacity="0.5"/>
</g>
<defs>
<clipPath id="clip0_2742_604">
<rect width="20" height="20" fill="white"/>
</clipPath>
</defs>
</svg>
