<svg width="16" height="16" viewBox="0 0 16 16" fill="none" xmlns="http://www.w3.org/2000/svg">
<g clip-path="url(#clip0_759_26690)">
<path d="M14.8571 9.14139H9.14286V14.8557C9.14286 15.1588 9.02245 15.4495 8.80812 15.6638C8.59379 15.8781 8.30311 15.9985 8 15.9985C7.6969 15.9985 7.40621 15.8781 7.19188 15.6638C6.97755 15.4495 6.85714 15.1588 6.85714 14.8557V9.14139H1.14286C0.839753 9.14139 0.549063 9.02098 0.334735 8.80666C0.120408 8.59233 0 8.30164 0 7.99853C0 7.69543 0.120408 7.40474 0.334735 7.19041C0.549063 6.97609 0.839753 6.85568 1.14286 6.85568H6.85714V1.14139C6.85714 0.838288 6.97755 0.547597 7.19188 0.33327C7.40621 0.118943 7.6969 -0.00146484 8 -0.00146484C8.30311 -0.00146484 8.59379 0.118943 8.80812 0.33327C9.02245 0.547597 9.14286 0.838288 9.14286 1.14139V6.85568H14.8571C15.1602 6.85568 15.4509 6.97609 15.6653 7.19041C15.8796 7.40474 16 7.69543 16 7.99853C16 8.30164 15.8796 8.59233 15.6653 8.80666C15.4509 9.02098 15.1602 9.14139 14.8571 9.14139Z" fill="white"/>
</g>
<defs>
<clipPath id="clip0_759_26690">
<rect width="16" height="16" fill="white"/>
</clipPath>
</defs>
</svg>
