<svg width="20" height="20" viewBox="0 0 20 20" fill="none" xmlns="http://www.w3.org/2000/svg">
<g clip-path="url(#clip0_2067_16360)">
<path d="M10.4045 14.626C10.5125 14.5172 10.5665 14.3824 10.5665 14.2215V8.94907C10.5665 8.7882 10.5125 8.65339 10.4045 8.54463C10.2965 8.43587 10.1617 8.38187 10 8.38263C9.83841 8.38338 9.7036 8.43738 9.5956 8.54463C9.4876 8.65188 9.43359 8.78669 9.43359 8.94907V14.2215C9.43359 14.3824 9.4876 14.5172 9.5956 14.626C9.7036 14.7347 9.83841 14.7887 10 14.788C10.1617 14.7872 10.2965 14.734 10.4045 14.626ZM10.4917 6.38988C10.6292 6.25318 10.6979 6.08966 10.6979 5.89934C10.6979 5.70901 10.6292 5.54512 10.4917 5.40766C10.3543 5.27021 10.1904 5.20148 10 5.20148C9.80971 5.20148 9.64582 5.27021 9.50837 5.40766C9.37091 5.54512 9.30218 5.70901 9.30218 5.89934C9.30218 6.08966 9.37091 6.25318 9.50837 6.38988C9.64582 6.52658 9.80971 6.59531 10 6.59606C10.1904 6.59682 10.3543 6.52809 10.4917 6.38988ZM9.67603 19.9845C9.56274 19.9649 9.45663 19.9362 9.35769 19.8984C7.12817 19.0488 5.35633 17.6077 4.04218 15.5753C2.72803 13.5429 2.07058 11.3429 2.06982 8.97513V4.12297C2.06982 3.73779 2.18122 3.38923 2.40403 3.07731C2.62683 2.76539 2.91194 2.53881 3.25936 2.39758L9.35996 0.131805C9.58049 0.0517474 9.79385 0.0117188 10 0.0117188C10.2062 0.0117188 10.42 0.0517474 10.6413 0.131805L16.7407 2.39758C17.0881 2.53881 17.3732 2.76539 17.5961 3.07731C17.8189 3.38923 17.9303 3.73779 17.9303 4.12297V8.97513C17.9303 11.3429 17.2732 13.5429 15.959 15.5753C14.6449 17.6077 12.8727 19.0488 10.6424 19.8984C10.5442 19.9362 10.4385 19.9645 10.3252 19.9834C10.2119 20.0023 10.1035 20.0117 10 20.0117C9.89657 20.0117 9.78819 20.0023 9.6749 19.9834M10 18.9445C11.9637 18.3214 13.5875 17.0753 14.8715 15.206C16.1554 13.3367 16.7974 11.2598 16.7974 8.97513V4.10144C16.7974 3.95643 16.7573 3.82577 16.6773 3.70946C16.598 3.59315 16.4854 3.5063 16.3397 3.4489L10.2402 1.18312C10.1677 1.15291 10.0876 1.13781 10 1.13781C9.91243 1.13781 9.83237 1.15291 9.75987 1.18312L3.6604 3.4489C3.51463 3.5063 3.4021 3.59315 3.3228 3.70946C3.24274 3.82577 3.20271 3.95643 3.20271 4.10144V8.97513C3.20271 11.2598 3.84468 13.3367 5.12862 15.206C6.41256 17.0753 8.03637 18.3214 10 18.9445Z" fill="#959595"/>
</g>
<defs>
<clipPath id="clip0_2067_16360">
<rect width="20" height="20" fill="white"/>
</clipPath>
</defs>
</svg>
