<svg width="13" height="20" viewBox="0 0 13 20" fill="none" xmlns="http://www.w3.org/2000/svg">
<path d="M11.2353 18.3461C11.3476 18.3418 11.4596 18.3601 11.5647 18.4001C11.6697 18.4401 11.7656 18.5009 11.8466 18.5788C11.9276 18.6567 11.9921 18.7502 12.0361 18.8536C12.0801 18.957 12.1028 19.0683 12.1028 19.1807C12.1028 19.2931 12.0801 19.4043 12.0361 19.5077C11.9921 19.6111 11.9276 19.7046 11.8466 19.7825C11.7656 19.8604 11.6697 19.9212 11.5647 19.9612C11.4596 20.0012 11.3476 20.0195 11.2353 20.0152C11.0138 20.0152 10.8014 19.9272 10.6447 19.7706C10.4881 19.614 10.4001 19.4015 10.4001 19.18C10.4001 18.9585 10.4881 18.7461 10.6447 18.5895C10.8014 18.4329 11.0138 18.3461 11.2353 18.3461ZM8.31414 17.511C8.42645 17.5066 8.53848 17.525 8.64353 17.565C8.74857 17.6049 8.84447 17.6657 8.92547 17.7436C9.00646 17.8216 9.0709 17.915 9.11492 18.0185C9.15893 18.1219 9.18162 18.2331 9.18162 18.3455C9.18162 18.4579 9.15893 18.5691 9.11492 18.6726C9.0709 18.776 9.00646 18.8694 8.92547 18.9474C8.84447 19.0253 8.74857 19.0861 8.64353 19.126C8.53848 19.166 8.42645 19.1844 8.31414 19.18C8.0984 19.1717 7.89428 19.0801 7.74461 18.9245C7.59493 18.7689 7.51132 18.5614 7.51132 18.3455C7.51132 18.1296 7.59493 17.9221 7.74461 17.7665C7.89428 17.6109 8.0984 17.5193 8.31414 17.511ZM14.1564 17.511C14.2688 17.5066 14.3808 17.525 14.4858 17.565C14.5909 17.6049 14.6868 17.6657 14.7678 17.7436C14.8488 17.8216 14.9132 17.915 14.9572 18.0185C15.0012 18.1219 15.0239 18.2331 15.0239 18.3455C15.0239 18.4579 15.0012 18.5691 14.9572 18.6726C14.9132 18.776 14.8488 18.8694 14.7678 18.9474C14.6868 19.0253 14.5909 19.0861 14.4858 19.126C14.3808 19.166 14.2688 19.1844 14.1564 19.18C13.9407 19.1717 13.7366 19.0801 13.5869 18.9245C13.4372 18.7689 13.3536 18.5614 13.3536 18.3455C13.3536 18.1296 13.4372 17.9221 13.5869 17.7665C13.7366 17.6109 13.9407 17.5193 14.1564 17.511ZM11.2353 4.98996C14.3205 4.98996 16.0722 6.95952 16.3263 9.33976H16.404C18.3898 9.33976 20 10.8886 20 12.7993C20 14.71 18.3898 16.2589 16.404 16.2589H6.06662C4.08078 16.2589 2.47058 14.71 2.47058 12.7993C2.47058 10.8886 4.08078 9.33976 6.06662 9.33976H6.14425C6.39967 6.94324 8.14886 4.98996 11.2353 4.98996ZM2.22392 8.37064C2.27205 8.50945 2.26983 8.66078 2.21764 8.79812C2.16545 8.93547 2.06661 9.05008 1.93844 9.1219L1.83576 9.16698L0.832831 9.51256C0.684823 9.56435 0.522768 9.55871 0.378716 9.49676C0.234665 9.43481 0.119106 9.32106 0.0548952 9.178C-0.00931579 9.03494 -0.0175032 8.87299 0.0319521 8.72419C0.0814074 8.57539 0.184904 8.45056 0.321973 8.37439L0.424646 8.32932L1.42883 7.98374C1.58574 7.92989 1.75761 7.94053 1.90669 8.0133C2.05576 8.08608 2.16986 8.21505 2.22392 8.37189M8.63092 3.11181C9.04662 3.31465 9.41348 3.57885 9.724 3.88811C7.5178 4.34388 5.93014 5.80759 5.28781 7.83975L5.20642 8.12022L5.14882 8.35436L4.94098 8.39192C4.38583 8.50734 3.85579 8.72105 3.37585 9.02298C2.89188 8.26911 2.66768 7.37767 2.73743 6.48454C2.80718 5.59141 3.16705 4.74559 3.76219 4.07599C4.35732 3.40639 5.15508 2.94975 6.03385 2.77568C6.91262 2.60161 7.82421 2.71965 8.62967 3.11181M1.1133 3.32467L1.21848 3.36474L2.17258 3.82927C2.31323 3.89764 2.4232 4.01618 2.48084 4.16156C2.53849 4.30695 2.53963 4.46864 2.48405 4.61482C2.42846 4.761 2.32018 4.88108 2.18051 4.95144C2.04083 5.02179 1.87988 5.03732 1.72934 4.99497L1.62291 4.95491L0.670058 4.49038C0.529404 4.422 0.419435 4.30346 0.361792 4.15808C0.304149 4.0127 0.303007 3.851 0.358591 3.70482C0.414174 3.55864 0.522457 3.43856 0.662131 3.3682C0.801805 3.29785 0.962753 3.28232 1.1133 3.32467ZM9.96942 0.350928C10.1012 0.415248 10.2063 0.523815 10.2663 0.657685C10.3262 0.791554 10.3373 0.942225 10.2975 1.08341L10.2574 1.18858L9.79287 2.14269C9.72449 2.28334 9.60595 2.39331 9.46057 2.45095C9.31519 2.50859 9.1535 2.50974 9.00732 2.45415C8.86113 2.39857 8.74105 2.29029 8.6707 2.15061C8.60034 2.01094 8.58481 1.84999 8.62716 1.69944L8.66723 1.59301L9.13176 0.638911C9.16782 0.564816 9.21815 0.498568 9.27987 0.443968C9.34159 0.389367 9.41348 0.347489 9.49142 0.320733C9.56936 0.293978 9.65181 0.282873 9.73405 0.288054C9.81629 0.293236 9.89545 0.314602 9.96942 0.350928ZM5.2252 0.31086L5.27153 0.413533L5.61711 1.41772C5.66791 1.56554 5.66158 1.72701 5.59936 1.8704C5.53714 2.01378 5.42354 2.12871 5.28088 2.19258C5.13823 2.25645 4.97684 2.26466 4.82844 2.21557C4.68005 2.16648 4.55538 2.06366 4.47895 1.92732L4.43262 1.82465L4.08829 0.821718C4.03829 0.674249 4.04504 0.513438 4.10722 0.370677C4.1694 0.227916 4.28256 0.113452 4.42459 0.0496296C4.56663 -0.0141926 4.72735 -0.0227919 4.87539 0.0255104C5.02342 0.0738126 5.14814 0.175549 5.2252 0.31086Z" fill="#A1D0FF"/>
</svg>
