<svg width="52" height="20" viewBox="0 0 52 20" fill="none" xmlns="http://www.w3.org/2000/svg">
<g clip-path="url(#clip0_1855_14925)">
<rect width="20" height="20" rx="10" transform="matrix(1 0 0 -1 0 20)" fill="white"/>
<path fill-rule="evenodd" clip-rule="evenodd" d="M2.6237 17.3763C4.37481 19.1259 6.90074 20 10 20C13.0993 20 15.6252 19.1259 17.3763 17.3763C19.1274 15.6267 20 13.0993 20 10C20 6.90074 19.1259 4.37481 17.3763 2.6237C15.6267 0.872593 13.0993 0 10 0C6.90074 0 4.37481 0.874075 2.6237 2.6237C0.872592 4.37333 0 6.90074 0 10C0 13.0993 0.874074 15.6252 2.6237 17.3763ZM6.15259 14.3496C7.62963 14.637 9.98963 14.963 11.8815 14.963C14.9881 14.963 15.6104 11.4133 15.6104 9.63852C15.6104 7.8637 13.8356 6.97778 12.9481 6.97778H10.3881L10.5778 5.6563C10.6288 5.30198 10.5567 4.94089 10.3736 4.63328C10.1905 4.32568 9.90747 4.09017 9.5717 3.96606C9.23594 3.84194 8.86776 3.83673 8.52862 3.95129C8.18947 4.06586 7.89987 4.29326 7.70815 4.59556L5.29481 8.38815C5.14369 8.62596 5.06352 8.90194 5.0637 9.1837V12.9852C5.0637 13.6459 5.50222 14.2252 6.15259 14.3496Z" fill="#3498FA"/>
</g>
<g clip-path="url(#clip1_1855_14925)">
<path d="M21.661 0.990328C22.8442 0.420537 24.128 0.0893692 25.4392 0.0157335C26.7503 -0.0579022 28.0632 0.127436 29.3027 0.561166C30.5423 0.994896 31.6842 1.66852 32.6634 2.54359C33.6426 3.41865 34.4399 4.47802 35.0097 5.6612C35.5795 6.84437 35.9106 8.12819 35.9843 9.43936C36.0579 10.7505 35.8726 12.0633 35.4388 13.3029C35.0051 14.5424 34.3315 15.6844 33.4564 16.6636C32.5813 17.6428 31.522 18.4401 30.3388 19.0098C27.9493 20.1606 25.2006 20.315 22.6973 19.4391C20.1939 18.5631 18.1411 16.7287 16.9904 14.3392C15.8396 11.9497 15.6852 9.20094 16.5611 6.69762C17.4371 4.1943 19.2715 2.14107 21.661 0.990328Z" fill="#F2C94C"/>
<path fill-rule="evenodd" clip-rule="evenodd" d="M20.4106 11.9819C20.6826 13.2625 21.3862 14.4107 22.4037 15.2345C23.4211 16.0583 24.6906 16.5075 25.9998 16.5071C27.3088 16.5072 28.5781 16.0578 29.5955 15.234C30.6128 14.4103 31.3165 13.2623 31.5889 11.9819H20.4106Z" fill="#333333"/>
<path d="M20.8472 5.63965L24.0183 7.6216L20.8472 9.60355M31.1533 5.63965L27.9822 7.6216L31.1533 9.60355" stroke="#0B0B0B" stroke-width="1.58556" stroke-linecap="round" stroke-linejoin="round"/>
</g>
<g clip-path="url(#clip2_1855_14925)">
<path d="M37.661 0.990328C38.8442 0.420537 40.128 0.0893692 41.4392 0.0157335C42.7503 -0.0579022 44.0632 0.127436 45.3027 0.561166C46.5423 0.994896 47.6842 1.66852 48.6634 2.54359C49.6426 3.41865 50.4399 4.47802 51.0097 5.6612C51.5795 6.84437 51.9106 8.12819 51.9843 9.43936C52.0579 10.7505 51.8726 12.0633 51.4388 13.3029C51.0051 14.5424 50.3315 15.6844 49.4564 16.6636C48.5813 17.6428 47.522 18.4401 46.3388 19.0098C43.9493 20.1606 41.2006 20.315 38.6973 19.4391C36.1939 18.5631 34.1411 16.7287 32.9904 14.3392C31.8396 11.9497 31.6852 9.20094 32.5611 6.69762C33.4371 4.1943 35.2715 2.14107 37.661 0.990328Z" fill="#F2C94C"/>
<path d="M40.1274 12.6435C39.9287 12.7047 39.762 12.8415 39.6632 13.0244C39.5643 13.2073 39.5413 13.4217 39.5991 13.6214C39.6568 13.8211 39.7907 13.9902 39.9719 14.0921C40.1531 14.1941 40.3671 14.2208 40.5678 14.1664L40.1274 12.6435ZM45.6436 15.4729C45.7923 15.6216 45.9939 15.7051 46.2042 15.7051C46.4145 15.705 46.6161 15.6215 46.7647 15.4727C46.9134 15.324 46.9969 15.1224 46.9969 14.9121C46.9968 14.7018 46.9133 14.5002 46.7645 14.3516L45.6436 15.4729ZM40.5678 14.1664C41.0331 14.0318 41.5151 13.9635 41.9995 13.9635V12.3779C41.3649 12.3779 40.7347 12.4675 40.1274 12.6435L40.5678 14.1664ZM41.9995 13.9635C42.6763 13.9635 43.3464 14.0969 43.9716 14.3559L44.5785 12.8909C43.761 12.5522 42.8844 12.378 41.9995 12.3779V13.9635ZM43.9716 14.3559C44.5967 14.6148 45.1647 14.9941 45.6436 15.4729L46.7645 14.3516C46.1388 13.7258 45.396 13.2295 44.5785 12.8909L43.9716 14.3559Z" fill="#333333"/>
<path d="M38.4324 8.41418C38.8703 8.41418 39.2252 8.05924 39.2252 7.62139C39.2252 7.18355 38.8703 6.82861 38.4324 6.82861C37.9946 6.82861 37.6396 7.18355 37.6396 7.62139C37.6396 8.05924 37.9946 8.41418 38.4324 8.41418Z" stroke="#0B0B0B" stroke-width="1.58556" stroke-linecap="round" stroke-linejoin="round"/>
<path d="M45.5672 8.41418C46.005 8.41418 46.36 8.05924 46.36 7.62139C46.36 7.18355 46.005 6.82861 45.5672 6.82861C45.1294 6.82861 44.7744 7.18355 44.7744 7.62139C44.7744 8.05924 45.1294 8.41418 45.5672 8.41418Z" stroke="#0B0B0B" stroke-width="1.58556" stroke-linecap="round" stroke-linejoin="round"/>
<path d="M37.7015 11.3347C37.9742 10.6886 38.8899 10.6886 39.1626 11.3347L39.2728 11.5963L40.2705 13.2643C40.4384 13.5468 40.5402 13.8637 40.5681 14.1912C40.5961 14.5187 40.5495 14.8482 40.4318 15.1551C40.2775 15.5605 40.0037 15.9095 39.6465 16.1557C39.2894 16.4019 38.8658 16.5337 38.432 16.5337C37.9983 16.5337 37.5747 16.4019 37.2176 16.1557C36.8604 15.9095 36.5865 15.5605 36.4323 15.1551C36.3146 14.8482 36.268 14.5187 36.296 14.1912C36.3239 13.8637 36.4257 13.5468 36.5936 13.2643L37.5913 11.5963L37.7015 11.3347Z" fill="#56CCF2"/>
</g>
<defs>
<clipPath id="clip0_1855_14925">
<rect width="20" height="20" rx="10" transform="matrix(1 0 0 -1 0 20)" fill="white"/>
</clipPath>
<clipPath id="clip1_1855_14925">
<rect width="20" height="20" fill="white" transform="translate(16)"/>
</clipPath>
<clipPath id="clip2_1855_14925">
<rect width="20" height="20" fill="white" transform="translate(32)"/>
</clipPath>
</defs>
</svg>
