<svg width="18" height="18" viewBox="0 0 18 18" fill="none" xmlns="http://www.w3.org/2000/svg">
<path d="M15.7499 15.7499L12.4927 12.4927M12.4927 12.4927C13.0498 11.9355 13.4918 11.274 13.7933 10.5461C14.0949 9.8181 14.2501 9.03786 14.2501 8.24991C14.2501 7.46196 14.0949 6.68172 13.7933 5.95375C13.4918 5.22578 13.0498 4.56433 12.4927 4.00716C11.9355 3.44999 11.274 3.00803 10.5461 2.70649C9.8181 2.40495 9.03786 2.24976 8.24991 2.24976C7.46196 2.24976 6.68172 2.40495 5.95375 2.70649C5.22578 3.00803 4.56433 3.44999 4.00716 4.00716C2.88191 5.13241 2.24976 6.65857 2.24976 8.24991C2.24976 9.84125 2.88191 11.3674 4.00716 12.4927C5.13241 13.6179 6.65857 14.2501 8.24991 14.2501C9.84125 14.2501 11.3674 13.6179 12.4927 12.4927Z" stroke="white" stroke-width="1.25" stroke-linecap="round" stroke-linejoin="round"/>
</svg>
