<svg width="32" height="32" viewBox="0 0 32 32" fill="none" xmlns="http://www.w3.org/2000/svg">
<rect x="0.5" y="0.5" width="31" height="31" rx="15.5" stroke="#333333"/>
<g clip-path="url(#clip0_759_29830)">
<path d="M22.5968 8.06008C23.4304 7.76881 24.2312 8.56959 23.9399 9.40319L19.0786 23.2937C18.7628 24.1946 17.5074 24.2455 17.1202 23.3733L14.7745 18.0961L18.076 14.7937C18.1847 14.677 18.2439 14.5227 18.2411 14.3633C18.2383 14.2039 18.1737 14.0518 18.0609 13.9391C17.9482 13.8263 17.7961 13.7617 17.6367 13.7589C17.4773 13.7561 17.323 13.8153 17.2063 13.924L13.9039 17.2255L8.62668 14.8798C7.75452 14.4917 7.80621 13.2372 8.70626 12.9214L22.5968 8.06008Z" fill="#B8B8B8"/>
</g>
<defs>
<clipPath id="clip0_759_29830">
<rect width="16" height="16" fill="white" transform="translate(8 8)"/>
</clipPath>
</defs>
</svg>
