<svg width="24" height="24" viewBox="0 0 24 24" fill="none" xmlns="http://www.w3.org/2000/svg">
<rect width="24" height="24" rx="12" fill="#A5D3F8"/>
<path d="M17.4897 7.79056C17.7777 6.9939 17.0057 6.2219 16.209 6.51056L6.47237 10.0319C5.67304 10.3212 5.57637 11.4119 6.3117 11.8379L9.4197 13.6372L12.195 10.8619C12.3208 10.7405 12.4892 10.6733 12.664 10.6748C12.8388 10.6763 13.006 10.7464 13.1296 10.87C13.2532 10.9936 13.3233 11.1608 13.3248 11.3356C13.3263 11.5104 13.2591 11.6788 13.1377 11.8046L10.3624 14.5799L12.1624 17.6879C12.5877 18.4232 13.6784 18.3259 13.9677 17.5272L17.4897 7.79056Z" fill="#0D0D0D"/>
</svg>
