<svg width="20" height="20" viewBox="0 0 20 20" fill="none" xmlns="http://www.w3.org/2000/svg">
<path d="M8.99277 2.62696C9.08569 2.43876 9.2294 2.2803 9.40766 2.16951C9.58593 2.05872 9.79163 2 10.0015 2C10.2114 2 10.4171 2.05872 10.5954 2.16951C10.7736 2.2803 10.9173 2.43876 11.0103 2.62696L12.9115 6.47946L17.1628 7.09696C17.3706 7.12693 17.5659 7.21447 17.7265 7.34968C17.8872 7.48488 18.0068 7.66235 18.0719 7.862C18.1369 8.06166 18.1447 8.27553 18.0945 8.47942C18.0443 8.68331 17.9381 8.86907 17.7878 9.01571L14.7103 12.0157L15.4365 16.2495C15.4718 16.4563 15.4486 16.6689 15.3694 16.8632C15.2902 17.0576 15.1582 17.2259 14.9884 17.3491C14.8186 17.4724 14.6177 17.5457 14.4084 17.5608C14.1991 17.5759 13.9898 17.5321 13.804 17.4345L10.0015 15.437L6.19902 17.437C6.01308 17.5348 5.80345 17.5787 5.59388 17.5635C5.3843 17.5484 5.18316 17.4748 5.01324 17.3512C4.84332 17.2276 4.71141 17.0589 4.63245 16.8642C4.5535 16.6694 4.53066 16.4565 4.56652 16.2495L5.29152 12.0157L2.21652 9.01696C2.06624 8.87041 1.95996 8.68474 1.90969 8.48094C1.85942 8.27714 1.86717 8.06335 1.93207 7.86373C1.99696 7.6641 2.11641 7.48662 2.2769 7.35134C2.4374 7.21605 2.63254 7.12837 2.84027 7.09821L7.09027 6.48071L8.99277 2.62696Z" fill="#B1B1B1"/>
</svg>
