<svg width="20" height="20" viewBox="0 0 20 20" fill="none" xmlns="http://www.w3.org/2000/svg">
<g clip-path="url(#clip0_2598_28303)">
<path d="M11.247 18.3456C11.3593 18.3413 11.4714 18.3597 11.5764 18.3996C11.6814 18.4396 11.7773 18.5004 11.8583 18.5783C11.9393 18.6562 12.0038 18.7497 12.0478 18.8531C12.0918 18.9565 12.1145 19.0678 12.1145 19.1802C12.1145 19.2926 12.0918 19.4038 12.0478 19.5072C12.0038 19.6106 11.9393 19.7041 11.8583 19.782C11.7773 19.86 11.6814 19.9207 11.5764 19.9607C11.4714 20.0007 11.3593 20.019 11.247 20.0147C11.0255 20.0147 10.8131 19.9267 10.6565 19.7701C10.4998 19.6135 10.4119 19.401 10.4119 19.1795C10.4119 18.958 10.4998 18.7456 10.6565 18.589C10.8131 18.4324 11.0255 18.3456 11.247 18.3456ZM8.32586 17.5105C8.43817 17.5061 8.5502 17.5245 8.65525 17.5645C8.76029 17.6045 8.85618 17.6652 8.93718 17.7432C9.01818 17.8211 9.08262 17.9145 9.12664 18.018C9.17065 18.1214 9.19334 18.2326 9.19334 18.345C9.19334 18.4574 9.17065 18.5687 9.12664 18.6721C9.08262 18.7755 9.01818 18.869 8.93718 18.9469C8.85618 19.0248 8.76029 19.0856 8.65525 19.1256C8.5502 19.1655 8.43817 19.1839 8.32586 19.1795C8.11012 19.1712 7.906 19.0796 7.75632 18.924C7.60664 18.7684 7.52304 18.5609 7.52304 18.345C7.52304 18.1291 7.60664 17.9216 7.75632 17.766C7.906 17.6104 8.11012 17.5189 8.32586 17.5105ZM14.1682 17.5105C14.2805 17.5061 14.3925 17.5245 14.4976 17.5645C14.6026 17.6045 14.6985 17.6652 14.7795 17.7432C14.8605 17.8211 14.9249 17.9145 14.9689 18.018C15.013 18.1214 15.0356 18.2326 15.0356 18.345C15.0356 18.4574 15.013 18.5687 14.9689 18.6721C14.9249 18.7755 14.8605 18.869 14.7795 18.9469C14.6985 19.0248 14.6026 19.0856 14.4976 19.1256C14.3925 19.1655 14.2805 19.1839 14.1682 19.1795C13.9524 19.1712 13.7483 19.0796 13.5986 18.924C13.4489 18.7684 13.3653 18.5609 13.3653 18.345C13.3653 18.1291 13.4489 17.9216 13.5986 17.766C13.7483 17.6104 13.9524 17.5189 14.1682 17.5105ZM11.247 4.98948C14.3322 4.98948 16.0839 6.95903 16.3381 9.33928H16.4157C18.4015 9.33928 20.0117 10.8881 20.0117 12.7988C20.0117 14.7095 18.4015 16.2584 16.4157 16.2584H6.07833C4.0925 16.2584 2.4823 14.7095 2.4823 12.7988C2.4823 10.8881 4.0925 9.33928 6.07833 9.33928H6.15596C6.41139 6.94275 8.16058 4.98948 11.247 4.98948ZM2.23563 8.37015C2.28377 8.50897 2.28155 8.66029 2.22936 8.79764C2.17716 8.93498 2.07833 9.04959 1.95016 9.12141L1.84748 9.16649L0.844549 9.51207C0.696542 9.56386 0.534487 9.55822 0.390435 9.49627C0.246383 9.43432 0.130825 9.32057 0.0666139 9.17751C0.00240296 9.03445 -0.00578447 8.87251 0.0436709 8.7237C0.0931262 8.5749 0.196623 8.45007 0.333692 8.37391L0.436364 8.32883L1.44055 7.98325C1.59746 7.9294 1.76933 7.94004 1.9184 8.01282C2.06748 8.08559 2.18158 8.21456 2.23563 8.3714M8.64264 3.11132C9.05834 3.31416 9.4252 3.57836 9.73572 3.88763C7.52952 4.34339 5.94185 5.8071 5.29953 7.83926L5.21814 8.11973L5.16054 8.35387L4.95269 8.39144C4.39755 8.50685 3.86751 8.72056 3.38757 9.02249C2.9036 8.26862 2.6794 7.37718 2.74915 6.48405C2.8189 5.59093 3.17877 4.7451 3.7739 4.0755C4.36904 3.4059 5.16679 2.94927 6.04557 2.77519C6.92434 2.60112 7.83593 2.71916 8.64139 3.11132M1.12502 3.32418L1.2302 3.36425L2.1843 3.82878C2.32495 3.89715 2.43492 4.01569 2.49256 4.16108C2.55021 4.30646 2.55135 4.46815 2.49576 4.61433C2.44018 4.76051 2.3319 4.8806 2.19222 4.95095C2.05255 5.02131 1.8916 5.03684 1.74105 4.99448L1.63463 4.95442L0.681776 4.48989C0.541123 4.42151 0.431154 4.30297 0.373511 4.15759C0.315868 4.01221 0.314726 3.85052 0.37031 3.70433C0.425893 3.55815 0.534176 3.43807 0.67385 3.36771C0.813523 3.29736 0.974471 3.28183 1.12502 3.32418ZM9.98113 0.35044C10.113 0.41476 10.218 0.523327 10.278 0.657196C10.3379 0.791066 10.349 0.941737 10.3092 1.08292L10.2691 1.1881L9.80459 2.1422C9.73621 2.28285 9.61767 2.39282 9.47229 2.45046C9.32691 2.5081 9.16522 2.50925 9.01903 2.45366C8.87285 2.39808 8.75277 2.2898 8.68241 2.15012C8.61206 2.01045 8.59653 1.8495 8.63888 1.69895L8.67895 1.59252L9.14348 0.638423C9.17954 0.564328 9.22987 0.49808 9.29159 0.443479C9.35331 0.388879 9.4252 0.347 9.50314 0.320245C9.58108 0.29349 9.66353 0.282384 9.74577 0.287566C9.82801 0.292747 9.90717 0.314114 9.98113 0.35044ZM5.23692 0.310372L5.28325 0.413045L5.62883 1.41723C5.67963 1.56505 5.6733 1.72652 5.61108 1.86991C5.54886 2.01329 5.43526 2.12822 5.2926 2.19209C5.14995 2.25597 4.98856 2.26417 4.84016 2.21508C4.69177 2.166 4.5671 2.06318 4.49067 1.92684L4.44434 1.82416L4.10001 0.82123C4.05001 0.673761 4.05676 0.51295 4.11894 0.370189C4.18112 0.227428 4.29428 0.112964 4.43631 0.0491414C4.57835 -0.0146809 4.73907 -0.0232802 4.8871 0.0250221C5.03514 0.0733244 5.15986 0.175061 5.23692 0.310372Z" fill="#003C77"/>
</g>
<defs>
<clipPath id="clip0_2598_28303">
<rect width="20" height="20" fill="white"/>
</clipPath>
</defs>
</svg>
