<svg width="210" height="176" viewBox="0 0 210 176" fill="none" xmlns="http://www.w3.org/2000/svg">
<rect x="19" y="1" width="175" height="175" rx="87.5" fill="#7B83EB" fill-opacity="0.1"/>
<circle cx="106.5" cy="88.5" r="59.6338" fill="#7B83EB" fill-opacity="0.2"/>
<path d="M107.058 65.6523C113.265 65.6523 119.219 68.1184 123.608 72.5079C127.998 76.8974 130.464 82.8509 130.464 89.0586C130.464 95.2663 127.998 101.22 123.608 105.609C119.219 109.999 113.265 112.465 107.058 112.465C100.85 112.465 94.8964 109.999 90.5069 105.609C86.1174 101.22 83.6514 95.2663 83.6514 89.0586C83.6514 82.8509 86.1174 76.8974 90.5069 72.5079C94.8964 68.1184 100.85 65.6523 107.058 65.6523ZM104.142 93.6771L98.9438 88.4734C98.5676 88.0965 98.0571 87.8845 97.5246 87.884C96.992 87.8835 96.4811 88.0946 96.1042 88.4708C95.7273 88.847 95.5153 89.3575 95.5148 89.8901C95.5143 90.4226 95.7254 90.9335 96.1016 91.3104L102.726 97.9404C102.912 98.1273 103.133 98.2756 103.377 98.3768C103.62 98.478 103.881 98.5301 104.145 98.5301C104.409 98.5301 104.67 98.478 104.913 98.3768C105.156 98.2756 105.377 98.1273 105.563 97.9404L119.273 84.2258C119.464 84.0406 119.616 83.8192 119.72 83.5746C119.824 83.3301 119.879 83.0672 119.881 82.8013C119.883 82.5354 119.832 82.2717 119.731 82.0256C119.63 81.7796 119.482 81.556 119.294 81.368C119.106 81.1799 118.882 81.0312 118.636 80.9303C118.39 80.8294 118.126 80.7785 117.86 80.7804C117.594 80.7824 117.332 80.8372 117.087 80.9416C116.842 81.0461 116.621 81.1981 116.436 81.3889L104.142 93.6771Z" fill="#7B83EB"/>
<circle cx="194" cy="66" r="6" fill="#7B83EB"/>
<circle cx="70.5" cy="164.5" r="4.5" fill="#7B83EB"/>
<path d="M8.36873 143.425L16.6497 143.504C16.7488 143.505 16.8458 143.532 16.9317 143.582C17.0175 143.632 17.0894 143.702 17.1406 143.787L21.3491 150.919C21.4138 151.027 21.5119 151.111 21.6285 151.158C21.7451 151.205 21.8739 151.213 21.9955 151.181C22.117 151.148 22.2246 151.077 22.302 150.978C22.3794 150.879 22.4224 150.757 22.4245 150.631L22.503 142.35C22.5049 142.251 22.5319 142.154 22.5814 142.068C22.631 141.982 22.7015 141.91 22.7864 141.859L29.9187 137.651C30.0266 137.586 30.1105 137.488 30.1577 137.371C30.2049 137.255 30.2128 137.126 30.1802 137.004C30.1476 136.883 30.0764 136.775 29.9772 136.698C29.878 136.62 29.7563 136.577 29.6305 136.575L21.3495 136.497C21.2504 136.495 21.1534 136.468 21.0676 136.418C20.9817 136.369 20.9099 136.298 20.8587 136.213L16.6502 129.081C16.5855 128.973 16.4874 128.889 16.3708 128.842C16.2542 128.795 16.1253 128.787 16.0038 128.82C15.8823 128.852 15.7747 128.923 15.6973 129.023C15.6199 129.122 15.5769 129.243 15.5748 129.369L15.4963 137.65C15.4944 137.749 15.4674 137.846 15.4178 137.932C15.3683 138.018 15.2978 138.09 15.2129 138.141L8.08059 142.35C7.97268 142.414 7.88879 142.512 7.8416 142.629C7.79442 142.746 7.78651 142.874 7.81907 142.996C7.85163 143.118 7.92289 143.225 8.02207 143.303C8.12124 143.38 8.24294 143.423 8.36873 143.425Z" fill="#7B83EB" stroke="#7B83EB" stroke-width="0.125" stroke-linecap="round" stroke-linejoin="round"/>
<path d="M180.369 22.425L188.65 22.5035C188.749 22.5054 188.846 22.5324 188.932 22.582C189.018 22.6315 189.089 22.702 189.141 22.7869L193.349 29.9192C193.414 30.0271 193.512 30.111 193.628 30.1582C193.745 30.2054 193.874 30.2133 193.995 30.1807C194.117 30.1482 194.225 30.0769 194.302 29.9777C194.379 29.8786 194.422 29.7569 194.424 29.6311L194.503 21.3501C194.505 21.251 194.532 21.154 194.581 21.0681C194.631 20.9823 194.702 20.9104 194.786 20.8592L201.919 16.6507C202.027 16.586 202.11 16.4879 202.158 16.3713C202.205 16.2547 202.213 16.1259 202.18 16.0043C202.148 15.8828 202.076 15.7752 201.977 15.6978C201.878 15.6204 201.756 15.5774 201.631 15.5754L193.35 15.4968C193.25 15.4949 193.153 15.4679 193.068 15.4184C192.982 15.3688 192.91 15.2983 192.859 15.2134L188.65 8.08113C188.585 7.97322 188.487 7.88933 188.371 7.84214C188.254 7.79496 188.125 7.78704 188.004 7.81961C187.882 7.85217 187.775 7.92343 187.697 8.02261C187.62 8.12178 187.577 8.24347 187.575 8.36926L187.496 16.6503C187.494 16.7494 187.467 16.8464 187.418 16.9322C187.368 17.0181 187.298 17.0899 187.213 17.1411L180.081 21.3496C179.973 21.4143 179.889 21.5124 179.842 21.629C179.794 21.7457 179.787 21.8745 179.819 21.996C179.852 22.1175 179.923 22.2251 180.022 22.3025C180.121 22.3799 180.243 22.4229 180.369 22.425Z" fill="#7B83EB" stroke="#7B83EB" stroke-width="0.125" stroke-linecap="round" stroke-linejoin="round"/>
<path d="M32.1849 52.212L36.3254 52.2513C36.3749 52.2522 36.4234 52.2657 36.4663 52.2905C36.5092 52.3153 36.5452 52.3505 36.5708 52.393L38.675 55.9591C38.7074 56.0131 38.7564 56.055 38.8147 56.0786C38.873 56.1022 38.9375 56.1062 38.9982 56.0899C39.059 56.0736 39.1128 56.038 39.1515 55.9884C39.1902 55.9388 39.2117 55.8779 39.2127 55.8151L39.252 51.6745C39.2529 51.625 39.2664 51.5765 39.2912 51.5336C39.316 51.4907 39.3512 51.4547 39.3937 51.4291L42.9598 49.3249C43.0138 49.2925 43.0557 49.2435 43.0793 49.1852C43.1029 49.1269 43.1069 49.0624 43.0906 49.0017C43.0743 48.9409 43.0387 48.8871 42.9891 48.8484C42.9395 48.8097 42.8787 48.7882 42.8158 48.7872L38.6753 48.7479C38.6257 48.747 38.5772 48.7335 38.5343 48.7087C38.4914 48.6839 38.4554 48.6487 38.4298 48.6062L36.3256 45.0401C36.2932 44.9861 36.2442 44.9442 36.1859 44.9206C36.1276 44.897 36.0632 44.893 36.0024 44.9093C35.9416 44.9256 35.8878 44.9612 35.8491 45.0108C35.8104 45.0604 35.7889 45.1212 35.7879 45.1841L35.7486 49.3246C35.7477 49.3742 35.7342 49.4227 35.7094 49.4656C35.6846 49.5085 35.6494 49.5445 35.6069 49.5701L32.0408 51.6743C31.9868 51.7067 31.9449 51.7557 31.9213 51.814C31.8977 51.8723 31.8937 51.9368 31.91 51.9975C31.9263 52.0583 31.9619 52.1121 32.0115 52.1508C32.0611 52.1895 32.122 52.211 32.1849 52.212Z" fill="#7B83EB" stroke="#7B83EB" stroke-width="0.125" stroke-linecap="round" stroke-linejoin="round"/>
<path d="M163.185 155.212L167.325 155.251C167.375 155.252 167.423 155.266 167.466 155.29C167.509 155.315 167.545 155.351 167.571 155.393L169.675 158.959C169.707 159.013 169.756 159.055 169.815 159.079C169.873 159.102 169.937 159.106 169.998 159.09C170.059 159.074 170.113 159.038 170.151 158.988C170.19 158.939 170.212 158.878 170.213 158.815L170.252 154.675C170.253 154.625 170.266 154.576 170.291 154.534C170.316 154.491 170.351 154.455 170.394 154.429L173.96 152.325C174.014 152.293 174.056 152.243 174.079 152.185C174.103 152.127 174.107 152.062 174.091 152.002C174.074 151.941 174.039 151.887 173.989 151.848C173.94 151.81 173.879 151.788 173.816 151.787L169.675 151.748C169.626 151.747 169.577 151.733 169.534 151.709C169.491 151.684 169.455 151.649 169.43 151.606L167.326 148.04C167.293 147.986 167.244 147.944 167.186 147.921C167.128 147.897 167.063 147.893 167.002 147.909C166.942 147.926 166.888 147.961 166.849 148.011C166.81 148.06 166.789 148.121 166.788 148.184L166.749 152.325C166.748 152.374 166.734 152.423 166.709 152.466C166.685 152.509 166.649 152.544 166.607 152.57L163.041 154.674C162.987 154.707 162.945 154.756 162.921 154.814C162.898 154.872 162.894 154.937 162.91 154.998C162.926 155.058 162.962 155.112 163.012 155.151C163.061 155.189 163.122 155.211 163.185 155.212Z" fill="#7B83EB" stroke="#7B83EB" stroke-width="0.125" stroke-linecap="round" stroke-linejoin="round"/>
</svg>
