<svg width="210" height="176" viewBox="0 0 210 176" fill="none" xmlns="http://www.w3.org/2000/svg">
<rect x="19" y="1" width="175" height="175" rx="87.5" fill="#7B82EB" fill-opacity="0.1"/>
<circle cx="106.501" cy="88.5" r="59.6338" fill="#7B82EB" fill-opacity="0.2"/>
<path d="M107.059 65.6523C113.266 65.6523 119.22 68.1184 123.609 72.5079C127.999 76.8974 130.465 82.8509 130.465 89.0586C130.465 95.2663 127.999 101.22 123.609 105.609C119.22 109.999 113.266 112.465 107.059 112.465C100.851 112.465 94.8974 109.999 90.5079 105.609C86.1184 101.22 83.6523 95.2663 83.6523 89.0586C83.6523 82.8509 86.1184 76.8974 90.5079 72.5079C94.8974 68.1184 100.851 65.6523 107.059 65.6523ZM104.143 93.6771L98.9448 88.4734C98.5686 88.0965 98.0581 87.8845 97.5255 87.884C96.993 87.8835 96.4821 88.0946 96.1052 88.4708C95.7283 88.847 95.5163 89.3575 95.5158 89.8901C95.5153 90.4226 95.7264 90.9335 96.1026 91.3104L102.727 97.9404C102.913 98.1273 103.134 98.2756 103.378 98.3768C103.621 98.478 103.882 98.5301 104.146 98.5301C104.409 98.5301 104.671 98.478 104.914 98.3768C105.157 98.2756 105.378 98.1273 105.564 97.9404L119.274 84.2258C119.465 84.0406 119.617 83.8192 119.721 83.5746C119.825 83.3301 119.88 83.0672 119.882 82.8013C119.884 82.5354 119.833 82.2717 119.732 82.0256C119.631 81.7796 119.483 81.556 119.295 81.368C119.107 81.1799 118.883 81.0312 118.637 80.9303C118.391 80.8294 118.127 80.7785 117.861 80.7804C117.595 80.7824 117.333 80.8372 117.088 80.9416C116.843 81.0461 116.622 81.1981 116.437 81.3889L104.143 93.6771Z" fill="#7B82EB"/>
<circle cx="194" cy="66" r="6" fill="#7B82EB"/>
<circle cx="70.5" cy="164.5" r="4.5" fill="#7B82EB"/>
<path d="M8.3697 143.425L16.6507 143.504C16.7498 143.505 16.8468 143.532 16.9327 143.582C17.0185 143.632 17.0904 143.702 17.1416 143.787L21.3501 150.919C21.4148 151.027 21.5128 151.111 21.6295 151.158C21.7461 151.205 21.8749 151.213 21.9964 151.181C22.118 151.148 22.2256 151.077 22.303 150.978C22.3804 150.879 22.4234 150.757 22.4254 150.631L22.504 142.35C22.5059 142.251 22.5329 142.154 22.5824 142.068C22.632 141.982 22.7025 141.91 22.7874 141.859L29.9197 137.651C30.0276 137.586 30.1115 137.488 30.1586 137.371C30.2058 137.255 30.2137 137.126 30.1812 137.004C30.1486 136.883 30.0774 136.775 29.9782 136.698C29.879 136.62 29.7573 136.577 29.6315 136.575L21.3505 136.497C21.2514 136.495 21.1544 136.468 21.0686 136.418C20.9827 136.369 20.9108 136.298 20.8597 136.213L16.6511 129.081C16.5865 128.973 16.4884 128.889 16.3718 128.842C16.2551 128.795 16.1263 128.787 16.0048 128.82C15.8833 128.852 15.7757 128.923 15.6983 129.023C15.6209 129.122 15.5779 129.243 15.5758 129.369L15.4973 137.65C15.4954 137.749 15.4684 137.846 15.4188 137.932C15.3693 138.018 15.2987 138.09 15.2139 138.141L8.08156 142.35C7.97366 142.414 7.88977 142.512 7.84258 142.629C7.79539 142.746 7.78748 142.874 7.82004 142.996C7.8526 143.118 7.92387 143.225 8.02304 143.303C8.12222 143.38 8.24391 143.423 8.3697 143.425Z" fill="#7B82EB" stroke="#7B82EB" stroke-width="0.125" stroke-linecap="round" stroke-linejoin="round"/>
<path d="M180.37 22.425L188.651 22.5035C188.75 22.5054 188.847 22.5324 188.933 22.582C189.018 22.6315 189.09 22.702 189.142 22.7869L193.35 29.9192C193.415 30.0271 193.513 30.111 193.629 30.1582C193.746 30.2054 193.875 30.2133 193.996 30.1807C194.118 30.1482 194.226 30.0769 194.303 29.9777C194.38 29.8786 194.423 29.7569 194.425 29.6311L194.504 21.3501C194.506 21.251 194.533 21.154 194.582 21.0681C194.632 20.9823 194.702 20.9104 194.787 20.8592L201.92 16.6507C202.028 16.586 202.111 16.4879 202.159 16.3713C202.206 16.2547 202.214 16.1259 202.181 16.0043C202.149 15.8828 202.077 15.7752 201.978 15.6978C201.879 15.6204 201.757 15.5774 201.632 15.5754L193.351 15.4968C193.251 15.4949 193.154 15.4679 193.069 15.4184C192.983 15.3688 192.911 15.2983 192.86 15.2134L188.651 8.08113C188.586 7.97322 188.488 7.88933 188.372 7.84214C188.255 7.79496 188.126 7.78704 188.005 7.81961C187.883 7.85217 187.776 7.92343 187.698 8.02261C187.621 8.12178 187.578 8.24347 187.576 8.36926L187.497 16.6503C187.495 16.7494 187.468 16.8464 187.419 16.9322C187.369 17.0181 187.299 17.0899 187.214 17.1411L180.082 21.3496C179.974 21.4143 179.89 21.5124 179.843 21.629C179.795 21.7457 179.787 21.8745 179.82 21.996C179.853 22.1175 179.924 22.2251 180.023 22.3025C180.122 22.3799 180.244 22.4229 180.37 22.425Z" fill="#7B82EB" stroke="#7B82EB" stroke-width="0.125" stroke-linecap="round" stroke-linejoin="round"/>
<path d="M32.1829 52.212L36.3234 52.2513C36.373 52.2522 36.4215 52.2657 36.4644 52.2905C36.5073 52.3153 36.5432 52.3505 36.5688 52.393L38.6731 55.9591C38.7054 56.0131 38.7545 56.055 38.8128 56.0786C38.8711 56.1022 38.9355 56.1062 38.9963 56.0899C39.057 56.0736 39.1108 56.038 39.1495 55.9884C39.1882 55.9388 39.2097 55.8779 39.2108 55.8151L39.25 51.6745C39.251 51.625 39.2645 51.5765 39.2893 51.5336C39.314 51.4907 39.3493 51.4547 39.3917 51.4291L42.9579 49.3249C43.0118 49.2925 43.0538 49.2435 43.0774 49.1852C43.101 49.1269 43.1049 49.0624 43.0886 49.0017C43.0724 48.9409 43.0367 48.8871 42.9871 48.8484C42.9375 48.8097 42.8767 48.7882 42.8138 48.7872L38.6733 48.7479C38.6238 48.747 38.5752 48.7335 38.5323 48.7087C38.4894 48.6839 38.4535 48.6487 38.4279 48.6062L36.3236 45.0401C36.2913 44.9861 36.2422 44.9442 36.1839 44.9206C36.1256 44.897 36.0612 44.893 36.0004 44.9093C35.9397 44.9256 35.8859 44.9612 35.8472 45.0108C35.8085 45.0604 35.787 45.1212 35.7859 45.1841L35.7467 49.3246C35.7457 49.3742 35.7322 49.4227 35.7075 49.4656C35.6827 49.5085 35.6474 49.5445 35.605 49.5701L32.0388 51.6743C31.9849 51.7067 31.9429 51.7557 31.9193 51.814C31.8957 51.8723 31.8918 51.9368 31.9081 51.9975C31.9243 52.0583 31.96 52.1121 32.0096 52.1508C32.0592 52.1895 32.12 52.211 32.1829 52.212Z" fill="#7B82EB" stroke="#7B82EB" stroke-width="0.125" stroke-linecap="round" stroke-linejoin="round"/>
<path d="M163.183 155.212L167.323 155.251C167.373 155.252 167.421 155.266 167.464 155.29C167.507 155.315 167.543 155.351 167.569 155.393L169.673 158.959C169.705 159.013 169.754 159.055 169.813 159.079C169.871 159.102 169.936 159.106 169.996 159.09C170.057 159.074 170.111 159.038 170.15 158.988C170.188 158.939 170.21 158.878 170.211 158.815L170.25 154.675C170.251 154.625 170.264 154.576 170.289 154.534C170.314 154.491 170.349 154.455 170.392 154.429L173.958 152.325C174.012 152.293 174.054 152.243 174.077 152.185C174.101 152.127 174.105 152.062 174.089 152.002C174.072 151.941 174.037 151.887 173.987 151.848C173.938 151.81 173.877 151.788 173.814 151.787L169.673 151.748C169.624 151.747 169.575 151.733 169.532 151.709C169.489 151.684 169.453 151.649 169.428 151.606L167.324 148.04C167.291 147.986 167.242 147.944 167.184 147.921C167.126 147.897 167.061 147.893 167 147.909C166.94 147.926 166.886 147.961 166.847 148.011C166.808 148.06 166.787 148.121 166.786 148.184L166.747 152.325C166.746 152.374 166.732 152.423 166.707 152.466C166.683 152.509 166.647 152.544 166.605 152.57L163.039 154.674C162.985 154.707 162.943 154.756 162.919 154.814C162.896 154.872 162.892 154.937 162.908 154.998C162.924 155.058 162.96 155.112 163.01 155.151C163.059 155.189 163.12 155.211 163.183 155.212Z" fill="#7B82EB" stroke="#7B82EB" stroke-width="0.125" stroke-linecap="round" stroke-linejoin="round"/>
</svg>
