<svg width="18" height="18" viewBox="0 0 18 18" fill="none" xmlns="http://www.w3.org/2000/svg">
<g clip-path="url(#clip0_759_28826)">
<path d="M12.2083 14.0417C12.2083 13.6203 12.1253 13.2031 11.9641 12.8139C11.8029 12.4246 11.5666 12.071 11.2686 11.773C10.9707 11.4751 10.617 11.2388 10.2278 11.0776C9.83852 10.9163 9.42132 10.8333 9 10.8333C8.57868 10.8333 8.16148 10.9163 7.77222 11.0776C7.38297 11.2388 7.02929 11.4751 6.73137 11.773C6.43344 12.071 6.19712 12.4246 6.03589 12.8139C5.87465 13.2031 5.79167 13.6203 5.79167 14.0417M8.90833 0.75V7.16667M12.2083 4.05L8.90833 0.75L5.60833 4.05M3.4065 8.44817L4.578 9.61967M0.75 13.95H2.4M15.4167 13.95H17.0667M13.2387 9.61967L14.4102 8.44817M17.25 17.25H0.75" stroke="#929292" stroke-width="1.375" stroke-linecap="round" stroke-linejoin="round"/>
</g>
<defs>
<clipPath id="clip0_759_28826">
<rect width="18" height="18" fill="white"/>
</clipPath>
</defs>
</svg>
