<svg width="102" height="22" viewBox="0 0 102 22" fill="none" xmlns="http://www.w3.org/2000/svg">
<path d="M58.295 16.1968C58.2699 16.48 58.2333 16.7555 58.2622 17.0368C58.322 17.6206 58.6726 17.9828 59.1774 18.1928C59.6186 18.3758 60.0905 18.3931 60.5587 18.2679C61.0924 18.1253 61.6222 17.9558 62.1597 17.8306C63.1404 17.6032 64.1171 17.6013 65.0823 17.9384C65.4966 18.0829 65.8761 18.2756 66.1709 18.6205C66.2325 18.5415 66.2113 18.4721 66.2113 18.4085C66.2113 16.823 66.2113 15.2393 66.2133 13.6537C66.2133 13.3031 66.1863 12.9544 66.0919 12.6172C65.9262 12.0258 65.6083 11.5557 64.9899 11.3784C64.2712 11.1742 63.622 11.3014 63.096 11.8697C62.8629 12.1202 62.6684 12.3995 62.4661 12.675C62.0769 13.2068 61.6472 13.698 61.1328 14.1161C60.5048 14.6266 59.7823 14.8983 58.9866 14.9908C58.1929 15.0832 57.4049 15.0736 56.6227 14.8867C56.432 14.8424 56.1969 14.8366 56.0755 14.7037C55.9561 14.5746 56.037 14.3454 56.037 14.1604C56.0332 13.5728 56.037 12.9852 56.037 12.3976C56.037 12.1491 56.0389 12.1491 56.2701 12.2165C56.5398 12.2955 56.8115 12.361 57.0928 12.3976C57.4184 12.44 57.742 12.4149 58.0599 12.3648C58.5975 12.2781 59.0579 12.0392 59.4298 11.6308C59.6821 11.3534 59.9037 11.049 60.1426 10.7619C60.4489 10.3939 60.7572 10.0298 61.156 9.75624C61.3101 9.65028 61.47 9.55587 61.6511 9.44028C61.2908 9.12624 61.0076 8.76019 60.7957 8.34405C60.7013 8.34597 60.6705 8.41726 60.6262 8.46157C59.607 9.45184 58.3817 9.86991 56.9714 9.8044C56.2181 9.7678 55.5111 9.57321 54.8464 9.21679C54.7404 9.15899 54.6768 9.10312 54.6768 8.96826C54.6826 8.15909 54.6807 7.34993 54.6807 6.54076C54.6807 6.50801 54.6749 6.47333 54.725 6.43673C54.7905 6.48296 54.8657 6.53498 54.9389 6.587C55.7885 7.18039 56.7171 7.39424 57.7266 7.11681C58.5782 6.8837 59.029 6.27104 59.0329 5.38673C59.0329 5.2249 59.029 5.06307 59.0329 4.90124C59.0348 4.80298 58.9924 4.76059 58.8961 4.76637C58.8364 4.77023 58.7766 4.76637 58.7169 4.76637C57.0369 4.76637 55.3569 4.77601 53.6789 4.76252C53.0219 4.75674 52.4613 4.96866 51.9565 5.36747C51.3689 5.8337 50.9643 6.44058 50.6484 7.1091C50.2573 7.93368 50.0492 8.81028 49.9336 9.70807C49.7795 10.9122 49.7775 12.1221 49.8854 13.3301C49.9375 13.8984 50.0511 14.4571 50.238 15.0004C50.4499 15.615 50.8237 16.114 51.3092 16.532C51.5269 16.7189 51.7927 16.8191 52.0856 16.823C52.3495 16.8268 52.6135 16.823 52.8774 16.821C53.1067 16.8191 53.124 16.8287 53.1202 17.0638C53.1202 17.243 53.1086 17.4221 53.0932 17.5994C53.0392 18.2525 53.0046 18.9075 53.0026 19.5645C53.0026 19.8265 53.0084 19.8034 52.7676 19.8188C50.9585 19.9363 49.4134 19.3718 48.1765 18.0251C47.7642 17.5763 47.456 17.0619 47.1921 16.5109C46.5987 15.2817 46.3887 13.9697 46.2981 12.6288C46.1941 11.0952 46.3424 9.58284 46.7509 8.09937C47.0842 6.8914 47.6332 5.7971 48.4694 4.85307C48.4809 4.84151 48.4867 4.82418 48.4964 4.80684C48.4617 4.7317 48.3923 4.76637 48.3403 4.76637C46.4638 4.76637 44.5893 4.76637 42.7128 4.76637C42.4893 4.76637 42.4873 4.7683 42.4873 5.01683C42.4873 7.2825 42.4931 9.55009 42.4912 11.8158C42.4873 14.3377 42.4777 16.8596 42.47 19.3815C42.47 19.4238 42.4681 19.4662 42.47 19.5086C42.4758 19.6088 42.4219 19.6416 42.3294 19.6396C42.1252 19.6377 41.9209 19.6396 41.7148 19.6396C40.896 19.6396 40.0772 19.6416 39.2584 19.6416C38.9752 19.6416 38.9694 19.6416 38.9405 19.3564C38.8191 18.1099 38.4897 16.9135 38.0485 15.7479C37.6767 14.7634 37.195 13.8348 36.54 13.0045C36.1624 12.5247 35.7289 12.1067 35.1991 11.7965C34.5017 11.3881 33.7503 11.2994 32.9777 11.494C32.1358 11.7059 31.6772 12.2993 31.5135 13.1258C31.3709 13.8445 31.5385 14.5303 31.8006 15.1969C31.8468 15.3164 31.9027 15.432 31.9528 15.5495C31.9547 15.5553 31.9489 15.5649 31.947 15.5765C31.9181 15.615 31.8738 15.6034 31.8333 15.6034C30.7333 15.6034 29.6331 15.6034 28.5331 15.6073C28.4117 15.6073 28.3288 15.5957 28.2865 15.4532C27.93 14.2664 27.8395 13.0777 28.2711 11.889C28.7739 10.5018 29.6986 9.49807 31.0781 8.9567C32.55 8.37872 34.0547 8.33441 35.5574 8.83725C37.0736 9.34587 38.1448 10.3747 38.875 11.7792C38.9135 11.8524 38.9289 11.9391 39.0214 12.0103C39.0252 11.9236 39.033 11.8524 39.033 11.7811C39.033 9.54046 39.033 7.29984 39.033 5.05922C39.033 5.01683 39.0291 4.97445 39.033 4.93206C39.0445 4.81454 39.0021 4.75481 38.875 4.76637C38.8152 4.77215 38.7555 4.76637 38.6958 4.76637C31.764 4.76637 24.8321 4.76637 17.9002 4.76637C17.8097 4.76637 17.7172 4.76637 17.6248 4.76637C17.617 4.86848 17.6787 4.91087 17.7172 4.96096C18.8944 6.45792 20.4318 7.36341 22.2929 7.72947C22.8208 7.8335 23.3544 7.88938 23.8938 7.87782C24.0325 7.87396 24.127 7.91056 24.2195 8.02423C24.6106 8.51744 25.0151 9.00294 25.4216 9.49807C25.0903 9.93926 24.8417 10.4228 24.6086 10.9141C24.1347 11.9121 23.9016 12.9736 23.7879 14.0622C23.6068 15.7961 23.811 17.4953 24.2638 19.1715C24.2811 19.237 24.2984 19.3025 24.3139 19.3699C24.3177 19.3853 24.31 19.4007 24.3061 19.4296C24.1694 19.4951 24.0133 19.4874 23.863 19.5067C22.9768 19.6242 22.0886 19.7379 21.2005 19.8477C20.9751 19.8766 20.9751 19.8689 20.9192 19.6416C20.6919 18.7052 20.4876 17.767 20.3855 16.8075C20.1929 15.0043 20.3162 13.2357 20.9654 11.5248C21.0406 11.3264 21.1292 11.1318 21.2178 10.9392C21.3064 10.7465 21.4066 10.5577 21.501 10.3708C21.4529 10.3015 21.3797 10.3053 21.3161 10.2918C18.3279 9.70229 16.016 8.10515 14.311 5.60059C14.1299 5.33472 14.1992 5.29426 13.8736 5.5004C13.024 6.03599 12.3729 6.75461 11.9355 7.65818C11.635 8.27662 11.5675 8.92973 11.714 9.60018C11.8353 10.1627 12.1841 10.5326 12.7139 10.7388C13.1185 10.8948 13.5403 10.9315 13.97 10.9141C15.0913 10.8698 16.1528 10.575 17.1874 10.1608C17.5612 10.0105 17.5592 10.0105 17.7172 10.3805C18.1391 11.3611 18.3973 12.3745 18.4108 13.4476C18.4435 15.9964 17.0082 18.0483 14.6924 19.0135C13.8833 19.3506 13.0337 19.5221 12.1629 19.5895C11.4558 19.6454 10.7487 19.6589 10.0436 19.5934C7.11328 19.3179 4.85341 17.9558 3.31599 15.4358C2.63398 14.3165 2.24093 13.0873 1.9924 11.8081C1.8402 11.0278 1.77856 10.2398 1.76122 9.44605C1.76122 9.40367 1.76315 9.36128 1.76122 9.3189C1.74966 9.19752 1.80555 9.159 1.925 9.15322C2.34114 9.13202 2.75921 9.10312 3.17535 9.07422C3.77838 9.03377 4.38331 8.99138 4.98633 8.95478C5.20788 8.94129 5.2098 8.94707 5.21365 9.17055C5.24255 10.4652 5.44676 11.731 5.88217 12.9524C6.27327 14.0506 6.90134 14.9888 7.81647 15.7248C8.59481 16.349 9.49454 16.6862 10.4771 16.8191C11.3518 16.9385 12.213 16.8769 13.0453 16.5686C14.3881 16.0716 15.2377 14.8039 15.1895 13.3724C15.1895 13.3301 15.1915 13.2877 15.1568 13.2434C14.9661 13.2588 14.783 13.332 14.5942 13.3744C13.3785 13.6364 12.1628 13.6518 10.9857 13.2376C9.4348 12.6924 8.51003 11.5846 8.28848 9.94697C8.05343 8.20726 8.61988 6.70837 9.7662 5.40985C9.95115 5.19986 10.1689 5.01876 10.3885 4.80876C10.2633 4.73555 10.1592 4.76059 10.0648 4.76059C6.83394 4.76059 3.60112 4.7606 0.370233 4.75867C-0.0516897 4.75867 0.00415122 4.81647 0.00222463 4.39647C-0.00162854 3.71446 0.000298044 3.03245 0.00222463 2.35236C0.00222463 2.06337 -0.0305198 2.06723 0.298927 2.06723C4.08467 2.06723 7.8704 2.06723 11.6561 2.06723C31.8371 2.06723 52.0181 2.06723 72.2011 2.06723C72.3879 2.06723 72.5768 2.06723 72.7637 2.06723C73.5516 2.07686 74.1469 2.43328 74.5785 3.08254C74.6209 3.14612 74.6575 3.20969 74.7249 3.32143C74.7519 3.15382 74.7326 3.03245 74.7191 2.913C74.6266 2.04989 74.5265 1.18678 74.4379 0.321743C74.3993 -0.0443089 74.38 0.00192847 74.7191 0.00192847C75.6323 1.88148e-06 76.5436 0.00192659 77.4568 0C77.5088 0 77.5589 0 77.6109 0C77.7342 0.00385317 77.7985 0.06422 77.8036 0.1811C77.8036 0.233117 77.8036 0.283206 77.8036 0.335224C77.8036 0.838063 77.8036 1.34091 77.8036 1.84374C77.8036 2.06338 77.8074 2.06723 78.0309 2.06723C79.3352 2.06723 80.6395 2.06723 81.9438 2.06723C88.5096 2.06723 95.0735 2.06723 101.639 2.06723C102.052 2.06723 101.998 2.03062 101.998 2.41786C102 3.09988 101.998 3.78189 101.998 4.46198C101.998 4.52941 101.996 4.59876 101.994 4.66619C101.994 4.72784 101.955 4.75675 101.896 4.75867C101.828 4.75867 101.759 4.75867 101.691 4.75867C93.8386 4.75867 85.9858 4.75867 78.133 4.75867C77.7516 4.75867 77.8017 4.70858 77.8017 5.10353C77.8017 9.841 77.8017 14.5785 77.7978 19.314C77.7978 19.6724 77.846 19.6377 77.4684 19.6396C76.5475 19.6396 75.6265 19.6396 74.7056 19.6396C74.6459 19.6396 74.5862 19.6358 74.5265 19.6396C74.4109 19.6493 74.3473 19.6127 74.3589 19.4836C74.3647 19.4161 74.3589 19.3468 74.3589 19.2794C74.3589 15.1892 74.3589 11.101 74.3589 7.01085C74.3589 6.7026 74.328 6.39819 74.2355 6.10343C73.9697 5.24995 73.3243 4.76445 72.4304 4.75867C71.6713 4.75482 70.9122 4.75867 70.1531 4.75867C70.103 4.75867 70.051 4.76252 69.9971 4.76637C69.9701 4.87041 70.0298 4.95133 70.0549 5.0361C70.3419 5.99554 70.3843 6.96461 70.1358 7.93754C69.8506 9.05111 69.1956 9.84871 68.084 10.2321C68.0686 10.2379 68.0551 10.2475 68.0397 10.2571C68.0339 10.34 68.109 10.3477 68.1572 10.3689C68.9567 10.7388 69.3459 11.4092 69.5116 12.2358C69.6002 12.6789 69.6233 13.1316 69.6214 13.5844C69.6195 15.22 69.6175 16.8557 69.6156 18.4914C69.6156 19.5048 69.6137 20.5181 69.6117 21.5335C69.6117 21.5932 69.6098 21.6529 69.6117 21.7126C69.6156 21.8013 69.5694 21.834 69.4865 21.8321C69.4441 21.8321 69.4017 21.8321 69.3593 21.8321C68.3614 21.8321 67.3634 21.8321 66.3674 21.8321C66.1266 21.8321 66.1516 21.8591 66.0938 21.6317C65.9262 20.9767 65.4908 20.601 64.8473 20.4565C64.2192 20.3159 63.5931 20.364 62.9747 20.5297C62.6548 20.6164 62.335 20.707 62.021 20.8148C60.8207 21.2233 59.5993 21.2541 58.3605 21.046C57.9135 20.9709 57.4839 20.8437 57.0581 20.6915C56.0775 20.337 55.4263 19.6705 55.1065 18.6783C54.8618 17.9211 54.7886 17.1466 54.8483 16.3567C54.8541 16.2681 54.8753 16.2103 54.9774 16.2084C55.1566 16.2026 55.33 16.1641 55.5111 16.166C56.3376 16.1718 57.166 16.1679 57.9925 16.1698C58.085 16.1698 58.1794 16.1564 58.2815 16.193L58.295 16.1968ZM64.4716 4.76252C63.8416 4.76252 63.2097 4.76637 62.5797 4.76059C62.4468 4.76059 62.3986 4.80298 62.4025 4.93399C62.4082 5.24031 62.4025 5.54664 62.4025 5.85297C62.4025 6.07453 62.4025 6.29416 62.4429 6.51379C62.6799 7.74295 63.909 8.65423 65.1324 8.55597C66.0379 8.48276 66.6198 8.00689 66.8182 7.12066C66.9858 6.37122 66.8702 5.65068 66.5947 4.94555C66.5408 4.80684 66.4637 4.75482 66.3115 4.75674C65.6989 4.76638 65.0843 4.76059 64.4697 4.76059L64.4716 4.76252Z" fill="white"/>
<path d="M92.7883 12.5171C92.3857 12.5556 91.9907 12.5961 91.5958 12.6327C90.9003 12.6963 90.2048 12.7598 89.5093 12.8234C89.4669 12.8273 89.4245 12.8273 89.3821 12.835C89.28 12.8523 89.2319 12.808 89.1933 12.7136C88.8581 11.8678 88.7059 10.997 88.7984 10.0877C88.9217 8.85272 89.4746 7.85475 90.4514 7.0899C90.9793 6.67761 91.5862 6.43679 92.2277 6.28073C93.4183 5.98982 94.6128 5.98982 95.7919 6.31926C97.5239 6.80091 98.7106 7.91448 99.3272 9.58676C100.009 11.4344 99.9379 13.2877 99.1172 15.0814C98.4795 16.4743 97.4468 17.5108 96.0751 18.2082C95.1137 18.6957 94.0888 18.9635 93.0234 19.0868C91.5168 19.2621 90.0256 19.1657 88.5653 18.7592C87.1858 18.3758 85.9798 17.6784 84.9452 16.6824C83.8104 15.59 83.0321 14.2761 82.4907 12.8099C81.9609 11.3688 81.6796 9.87574 81.5544 8.34989C81.5525 8.31521 81.5544 8.28053 81.5486 8.24778C81.5274 8.1264 81.5833 8.08787 81.6989 8.07054C82.1882 7.99925 82.6757 7.91833 83.1631 7.84127C83.6929 7.75843 84.2227 7.67558 84.7545 7.59467C84.9202 7.56962 84.9279 7.56962 84.9394 7.73723C84.9934 8.47704 85.0839 9.21107 85.2303 9.93932C85.45 11.0298 85.7852 12.0798 86.2996 13.07C86.5809 13.6095 86.9334 14.0969 87.3361 14.5516C88.23 15.5592 89.3744 16.0948 90.6826 16.3105C91.6382 16.4685 92.588 16.4261 93.5108 16.1121C94.9731 15.6112 95.8651 14.5959 96.1695 13.0816C96.3294 12.2878 96.3159 11.4883 96.1213 10.6984C95.9518 10.0183 95.6358 9.42493 95.0251 9.03383C94.4606 8.67356 93.8518 8.63117 93.2392 8.87199C92.5899 9.1263 92.3028 9.65611 92.2412 10.3246C92.1776 11.0105 92.3741 11.6386 92.6727 12.2435C92.7132 12.3244 92.7748 12.3996 92.7864 12.5171H92.7883Z" fill="white"/>
</svg>
