<svg width="16" height="16" viewBox="0 0 16 16" fill="none" xmlns="http://www.w3.org/2000/svg">
<g clip-path="url(#clip0_759_52944)">
<path fill-rule="evenodd" clip-rule="evenodd" d="M7.99988 0.434085C12.1302 0.430656 15.5736 3.88094 15.5736 8.00323C15.5736 12.1289 12.1302 15.5689 7.99988 15.5667C6.91433 15.5687 5.84113 15.3363 4.8536 14.8855L1.10503 15.5632C1.00552 15.5815 0.902962 15.5729 0.807828 15.5385C0.712693 15.5041 0.628393 15.4451 0.56354 15.3675C0.498687 15.2898 0.455607 15.1964 0.438701 15.0966C0.421795 14.9969 0.431668 14.8945 0.467313 14.7998L1.5416 11.9449C0.817679 10.7571 0.434187 9.39313 0.433027 8.00208C0.43417 3.8798 3.87417 0.43637 7.99988 0.434085ZM11.7999 11.2181C10.9576 11.8992 9.6536 12.5872 8.40674 11.7872C6.77246 10.7369 5.3256 9.35751 4.27646 7.72208C3.66046 6.76437 4.23988 5.23066 5.10617 4.2958C5.45131 3.92208 6.02046 3.98151 6.39646 4.32437L7.18731 5.04666C7.42731 5.26608 7.43646 5.6478 7.28674 5.93809C7.05017 6.39294 6.91074 7.00437 7.20331 7.46037C7.57131 8.0318 8.02388 8.59523 9.10503 8.92323C9.43188 9.0238 9.85131 8.98037 10.2079 8.83637C10.5062 8.71523 10.8845 8.71637 11.105 8.9518L11.841 9.73466C12.2467 10.1667 12.2605 10.8455 11.7999 11.2181Z" fill="white"/>
</g>
<defs>
<clipPath id="clip0_759_52944">
<rect width="16" height="16" fill="white"/>
</clipPath>
</defs>
</svg>
